<svg xmlns="http://www.w3.org/2000/svg" id="Ebene_1" data-name="Ebene 1"
     viewBox="0 0 304.34 716.92" width="304.34" height="716.92">
    <defs>
        <style>.cls-1{fill:#ec6707;}.cls-2{fill:#00843d;}.cls-3{fill:#abd107;}.cls-4{fill:#4e3629;}</style>
    </defs>
    <title>baumwipdelpfade-logo</title>
    <rect class="cls-1" x="143.82" y="156.24" width="20.65" height="77.96"/>
    <polygon class="cls-2"
             points="201.82 146.5 173.75 92.19 201.82 92.19 154.17 0 106.45 92.19 134.56 92.19 106.45 146.5 201.82 146.5"/>
    <rect class="cls-1" x="143.82" y="545.33" width="20.65" height="77.96"/>
    <path class="cls-3" d="M198.71,678.21a42.28,42.28,0,1,1-42.29-42.28,42.3,42.3,0,0,1,42.29,42.28"
          transform="translate(-2.3 -3.51)"/>
    <path class="cls-4"
          d="M53.14,242.8c14.79,0,23.34,8.55,23.34,20.06,0,7.71-4.86,14.05-11,16.06a17.52,17.52,0,0,1,13.31,17.53c0,12.25-9.3,21.22-23.45,21.22H25.16V242.8Zm-2.64,30c5.81,0,9.61-3.06,9.61-8.13,0-4.86-3.27-8-9.82-8H41.42v16.16Zm1.38,31.26c6.44,0,10.35-3.38,10.35-8.77,0-5.17-3.81-8.76-10.35-8.76H41.42v17.53Z"
          transform="translate(-2.3 -3.51)"/>
    <path class="cls-4"
          d="M102,287.36l12.36-1.9c2.85-.42,3.8-1.79,3.8-3.59,0-3.06-2.64-5.7-7.71-5.7-5.59,0-8.66,3.8-9,7.71L87.57,281c.63-7.5,7.6-17.43,23-17.43,17,0,23.23,9.51,23.23,20.28v25.66a50.62,50.62,0,0,0,.64,8.13H120a25.26,25.26,0,0,1-.53-5.91c-2.75,4.43-7.82,7.39-14.79,7.39-11.51,0-18.16-7.6-18.16-15.95C86.51,293.91,93.37,288.63,102,287.36Zm16.16,9.72v-2.32l-9.92,1.58c-3.38.53-5.92,2.11-5.92,5.81,0,2.74,1.8,5.38,6.23,5.38C113.33,307.53,118.19,305.21,118.19,297.08Z"
          transform="translate(-2.3 -3.51)"/>
    <path class="cls-4"
          d="M180.29,312.39c-2.75,4.54-8.77,6.44-14,6.44-12.78,0-20-9.29-20-20.48V265.19h16.05V295c0,5.07,2.75,9.08,8.45,9.08,5.39,0,8.77-3.7,8.77-9V265.19h16v43.08a80.81,80.81,0,0,0,.53,9.4H180.71A38.33,38.33,0,0,1,180.29,312.39Z"
          transform="translate(-2.3 -3.51)"/>
    <path class="cls-4"
          d="M209.74,317.67V265.19h15.32v6c2.64-4.65,9.4-7.61,15.1-7.61,7.5,0,12.88,3.06,15.52,8.24,4.12-5.91,9.19-8.24,16.27-8.24,9.92,0,19.43,5.81,19.43,20.07v34H275.85V287.26c0-5-2.64-8.87-8.34-8.87s-8.76,4.33-8.76,9v30.31H242.91V287.26c0-5-2.65-8.87-8.45-8.87-5.6,0-8.66,4.33-8.66,9.08v30.2Z"
          transform="translate(-2.3 -3.51)"/>
    <path class="cls-4"
          d="M55.1,370.79l10.24,31.15,8.77-31.15H89.84L73.58,423.27H57.63l-11.4-33.9L35,423.27H18.77L2.3,370.79H19l8.77,31,10.35-31Z"
          transform="translate(-2.3 -3.51)"/>
    <path class="cls-4"
          d="M106,345.34a9.4,9.4,0,1,1-9.3,9.39A9.43,9.43,0,0,1,106,345.34Zm-7.93,77.93V370.79h16.06v52.48Z"
          transform="translate(-2.3 -3.51)"/>
    <path class="cls-4"
          d="M128.17,443.34V370.79h15.52v5.38c2.22-3.38,7.92-6.65,15.42-6.65,15.21,0,24.4,11.62,24.4,27.35,0,16.05-10.35,27.56-25,27.56-6.76,0-11.83-2.32-14.26-5.28v24.19ZM155.84,384c-6.23,0-11.83,4.22-11.83,13s5.6,13.09,11.83,13.09,11.93-4.33,11.93-13.09S162.17,384,155.84,384Z"
          transform="translate(-2.3 -3.51)"/>
    <path class="cls-4"
          d="M212.33,384.3v39H196.28v-39h-8.34V370.79h8.34v-4.54c0-12,7.29-20.28,20.07-20.28,3.27,0,6.12.42,7.6,1.16v13.1a17.64,17.64,0,0,0-4.75-.53c-2.85,0-6.87,1.26-6.87,7.07v4h11.41V384.3Z"
          transform="translate(-2.3 -3.51)"/>
    <path class="cls-4"
          d="M279.28,408.17c-2.53,9.08-10.87,16.69-24.18,16.69-14.47,0-27.35-10.35-27.35-28,0-16.9,12.57-27.67,26.19-27.67,16.26,0,26.29,10,26.29,26.93a34.88,34.88,0,0,1-.31,5H243.38c.32,5.91,5.7,10.13,11.93,10.13,5.81,0,9.08-2.74,10.56-6.86Zm-14.57-17.42c-.21-4-3-8.87-10.56-8.87-6.76,0-10.14,5-10.45,8.87Z"
          transform="translate(-2.3 -3.51)"/>
    <path class="cls-4" d="M290.58,423.27V346.81h16.05v76.46Z" transform="translate(-2.3 -3.51)"/>
    <path class="cls-4"
          d="M21.25,548.94V476.39H36.77v5.38c2.22-3.38,7.93-6.65,15.42-6.65,15.21,0,24.4,11.62,24.4,27.35,0,16-10.35,27.56-25,27.56-6.76,0-11.83-2.32-14.26-5.28v24.19Zm27.67-59.35c-6.23,0-11.83,4.22-11.83,13s5.6,13.09,11.83,13.09,11.93-4.33,11.93-13.09S55.26,489.59,48.92,489.59Z"
          transform="translate(-2.3 -3.51)"/>
    <path class="cls-4"
          d="M105.41,489.9v39h-16v-39H81V476.39h8.34v-4.55c0-12,7.29-20.27,20.07-20.27,3.27,0,6.12.42,7.6,1.16v13.1a17.57,17.57,0,0,0-4.75-.53c-2.85,0-6.87,1.26-6.87,7.07v4h11.41V489.9Z"
          transform="translate(-2.3 -3.51)"/>
    <path class="cls-4"
          d="M137.52,498.56l12.35-1.9c2.85-.42,3.8-1.79,3.8-3.59,0-3.06-2.64-5.7-7.71-5.7-5.59,0-8.65,3.8-9,7.71l-13.94-2.85c.63-7.5,7.6-17.43,23-17.43,17,0,23.23,9.51,23.23,20.28v25.66a50.62,50.62,0,0,0,.64,8.13H155.47a25.26,25.26,0,0,1-.53-5.91c-2.75,4.43-7.81,7.39-14.78,7.39-11.52,0-18.17-7.6-18.17-16C122,505.11,128.86,499.83,137.52,498.56Zm16.15,9.72V506l-9.92,1.58c-3.38.53-5.92,2.11-5.92,5.81,0,2.74,1.8,5.38,6.23,5.38C148.82,518.73,153.67,516.41,153.67,508.28Z"
          transform="translate(-2.3 -3.51)"/>
    <path class="cls-4"
          d="M234.25,519.47c0,4.76.31,8.24.42,9.4H219.25a37,37,0,0,1-.42-5.07c-2.43,3.59-7.71,6.23-14.05,6.23-14.78,0-26-11.4-26-27.56,0-15.63,10.56-27.35,25.45-27.35,9,0,12.89,3.38,14.16,5.39v-28.1h15.84Zm-27.46-3.8c6.23,0,11.83-4.43,11.83-13.09s-5.6-13-11.83-13-11.83,4.22-11.83,13S200.56,515.67,206.79,515.67Z"
          transform="translate(-2.3 -3.51)"/>
    <path class="cls-4"
          d="M296.44,513.77c-2.53,9.08-10.87,16.69-24.18,16.69-14.47,0-27.35-10.35-27.35-28,0-16.9,12.57-27.67,26.19-27.67,16.26,0,26.29,10,26.29,26.93a34.56,34.56,0,0,1-.31,5H260.54c.32,5.92,5.7,10.14,11.93,10.14,5.81,0,9.08-2.74,10.56-6.86Zm-14.57-17.42c-.21-4-3-8.88-10.56-8.88-6.76,0-10.14,5-10.45,8.88Z"
          transform="translate(-2.3 -3.51)"/>
</svg>