<svg xmlns="http://www.w3.org/2000/svg" id="Ebene_1" data-name="Ebene 1"
     viewBox="0 0 228.38 611" width="228.38" height="611">
    <defs>
        <style>.cls-1{fill:#ec6707;}.cls-2{fill:#00843d;}.cls-3{fill:#abd107;}.cls-4{fill:#4e3629;}</style>
    </defs>
    <g id="Ebene_3" data-name="Ebene 3">
        <rect class="cls-1" x="108.67" y="117.18" width="15.49" height="58.47"/>
        <polygon class="cls-2"
                 points="116.43 0 80.65 69.14 101.73 69.14 80.65 109.87 152.18 109.87 131.12 69.14 152.18 69.14 116.43 0"/>
        <rect class="cls-1" x="108.67" y="482.3" width="15.49" height="58.47"/>
        <path class="cls-3" d="M175.66,628.16A31.71,31.71,0,1,1,144,596.45a31.72,31.72,0,0,1,31.71,31.71"
              transform="translate(-27.54 -48.83)"/>
        <path class="cls-4"
              d="M65.72,228.24c11.1,0,17.52,6.42,17.52,15.06a12.58,12.58,0,0,1-8.25,12,13.16,13.16,0,0,1,10,13.16c0,9.2-7,15.93-17.6,15.93H44.71V228.23h21Zm-2,22.51c4.36,0,7.22-2.3,7.22-6.1s-2.46-6-7.37-6H56.92v12.13Zm1,23.47c4.84,0,7.77-2.54,7.77-6.58,0-3.89-2.85-6.58-7.77-6.58H56.92v13.16Z"
              transform="translate(-27.54 -48.83)"/>
        <path class="cls-4"
              d="M102.42,261.69l9.28-1.42c2.14-.32,2.85-1.35,2.85-2.7,0-2.3-2-4.28-5.79-4.28-4.2,0-6.5,2.85-6.74,5.79l-10.47-2.14c.48-5.63,5.71-13.08,17.28-13.08,12.76,0,17.44,7.14,17.44,15.22v19.27a38.8,38.8,0,0,0,.47,6.1H115.88a19.43,19.43,0,0,1-.39-4.44c-2.06,3.33-5.87,5.55-11.1,5.55-8.64,0-13.63-5.71-13.63-12C90.76,266.61,95.92,262.64,102.42,261.69Zm12.13,7.3v-1.75l-7.45,1.19c-2.54.4-4.44,1.59-4.44,4.36,0,2.06,1.35,4,4.68,4C110.9,276.84,114.55,275.09,114.55,269Z"
              transform="translate(-27.54 -48.83)"/>
        <path class="cls-4"
              d="M161.08,280.48c-2.06,3.41-6.58,4.84-10.55,4.84-9.59,0-15-7-15-15.38V245.05h12V267.4c0,3.8,2.06,6.82,6.34,6.82,4,0,6.58-2.77,6.58-6.74V245h12v32.34a61.41,61.41,0,0,0,.4,7.06H161.4A28.34,28.34,0,0,1,161.08,280.48Z"
              transform="translate(-27.54 -48.83)"/>
        <path class="cls-4"
              d="M183.19,284.44V245h11.5v4.52c2-3.49,7.06-5.71,11.34-5.71,5.63,0,9.67,2.3,11.65,6.18,3.09-4.44,6.9-6.18,12.21-6.18,7.45,0,14.59,4.36,14.59,15.06v25.53H232.83V261.61c0-3.73-2-6.66-6.26-6.66S220,258.2,220,261.69v22.75H208.1V261.61c0-3.73-2-6.66-6.34-6.66-4.2,0-6.5,3.25-6.5,6.82v22.67Z"
              transform="translate(-27.54 -48.83)"/>
        <path class="cls-4"
              d="M67.18,324.32l7.69,23.38,6.58-23.38H93.26l-12.21,39.4h-12l-8.56-25.45-8.4,25.45H39.91l-12.37-39.4H40.07l6.58,23.31,7.77-23.31Z"
              transform="translate(-27.54 -48.83)"/>
        <path class="cls-4"
              d="M105.39,305.21a7.06,7.06,0,1,1-7,7.06A7.09,7.09,0,0,1,105.39,305.21Zm-6,58.5v-39.4h12v39.4Z"
              transform="translate(-27.54 -48.83)"/>
        <path class="cls-4"
              d="M122,378.78V324.32h11.65v4c1.66-2.54,5.94-5,11.57-5,11.42,0,18.31,8.72,18.31,20.53,0,12.05-7.77,20.69-18.79,20.69-5.07,0-8.88-1.75-10.71-4v18.16Zm20.77-44.56c-4.68,0-8.88,3.17-8.88,9.75s4.2,9.83,8.88,9.83,9-3.25,9-9.83S147.56,334.22,142.81,334.22Z"
              transform="translate(-27.54 -48.83)"/>
        <path class="cls-4"
              d="M185.21,334.46v29.25H173.16V334.46H166.9V324.31h6.26V320.9c0-9,5.47-15.22,15.06-15.22a14.64,14.64,0,0,1,5.71.87v9.83a13.5,13.5,0,0,0-3.57-.39c-2.14,0-5.15.95-5.15,5.31v3h8.56v10.15Z"
              transform="translate(-27.54 -48.83)"/>
        <path class="cls-4"
              d="M235.4,352.38c-1.9,6.82-8.17,12.53-18.16,12.53-10.86,0-20.54-7.77-20.54-21,0-12.68,9.44-20.77,19.66-20.77,12.21,0,19.74,7.53,19.74,20.22a25.08,25.08,0,0,1-.24,3.73H208.43c.24,4.44,4.28,7.61,9,7.61,4.36,0,6.82-2.06,7.93-5.15Zm-11-13.08c-.16-3-2.22-6.66-7.93-6.66a7.51,7.51,0,0,0-7.85,6.66Z"
              transform="translate(-27.54 -48.83)"/>
        <path class="cls-4" d="M243.87,363.71v-57.4h12v57.4Z" transform="translate(-27.54 -48.83)"/>
        <path class="cls-4"
              d="M64,458.05V403.59H75.62v4c1.66-2.54,5.95-5,11.58-5,11.42,0,18.31,8.72,18.31,20.53,0,12.05-7.77,20.69-18.79,20.69-5.07,0-8.88-1.75-10.7-4v18.16Zm20.77-44.56c-4.68,0-8.88,3.17-8.88,9.75s4.2,9.83,8.88,9.83,9-3.25,9-9.83S89.5,413.49,84.74,413.49Z"
              transform="translate(-27.54 -48.83)"/>
        <path class="cls-4"
              d="M127.15,413.73V443H115.1V413.73h-6.26V403.58h6.26v-3.41c0-9,5.47-15.22,15.06-15.22a14.64,14.64,0,0,1,5.71.87v9.83a13.56,13.56,0,0,0-3.57-.39c-2.14,0-5.16.95-5.16,5.31v3h8.56v10.15Z"
              transform="translate(-27.54 -48.83)"/>
        <path class="cls-4"
              d="M151.17,420.23l9.28-1.42c2.14-.32,2.85-1.35,2.85-2.7,0-2.3-2-4.28-5.79-4.28-4.2,0-6.5,2.85-6.74,5.79l-10.47-2.14c.48-5.63,5.71-13.08,17.28-13.08,12.76,0,17.44,7.14,17.44,15.22v19.27a37,37,0,0,0,.48,6.1H164.64a19.1,19.1,0,0,1-.4-4.44c-2.06,3.33-5.87,5.55-11.1,5.55-8.64,0-13.63-5.71-13.63-12C139.51,425.15,144.67,421.18,151.17,420.23Zm12.13,7.3v-1.75L155.85,427c-2.54.4-4.44,1.59-4.44,4.36,0,2.06,1.35,4,4.68,4C159.65,435.38,163.3,433.63,163.3,427.53Z"
              transform="translate(-27.54 -48.83)"/>
        <path class="cls-4"
              d="M223.7,435.93c0,3.57.24,6.18.32,7.06H212.44a26.92,26.92,0,0,1-.32-3.8c-1.82,2.69-5.79,4.68-10.54,4.68-11.1,0-19.5-8.56-19.5-20.69,0-11.73,7.93-20.53,19.11-20.53,6.74,0,9.67,2.54,10.62,4V385.6H223.7Zm-20.61-2.85c4.68,0,8.88-3.33,8.88-9.83s-4.2-9.75-8.88-9.75-8.88,3.17-8.88,9.75S198.41,433.08,203.09,433.08Z"
              transform="translate(-27.54 -48.83)"/>
        <path class="cls-1" d="M76.37,508.19V470.25H99.44v4.87H81.62v11.67H97.78v4.92H81.62v11.61H99.44v4.87Z"
              transform="translate(-27.54 -48.83)"/>
        <path class="cls-1" d="M107,508.19V469.44h5v38.75Z" transform="translate(-27.54 -48.83)"/>
        <path class="cls-1"
              d="M122.69,499.9c.32,2.68,2.36,4.82,6,4.82,2.84,0,4.39-1.61,4.39-3.43,0-1.61-1.18-2.84-3.32-3.32l-4.39-1c-4-.86-6.42-3.59-6.42-7.23,0-4.39,4.12-8.14,9.15-8.14,7.06,0,9.26,4.6,9.79,6.9l-4.44,1.66a5,5,0,0,0-5.35-4.28c-2.57,0-4.28,1.66-4.28,3.43,0,1.55,1,2.68,2.94,3.1l4.18.91c4.66,1,7.12,3.85,7.12,7.66,0,3.64-3.05,8-9.42,8-7.06,0-10.06-4.55-10.49-7.49Z"
              transform="translate(-27.54 -48.83)"/>
        <path class="cls-1"
              d="M150.42,493.48l7-1c1.55-.21,2-1,2-1.93,0-2.51-1.66-4.6-5.57-4.6a5.46,5.46,0,0,0-5.83,5.19L143.15,490c.53-4.92,5-8.35,10.54-8.35,7.71,0,10.7,4.39,10.7,9.42V504a23.93,23.93,0,0,0,.32,4.23h-4.92a18.51,18.51,0,0,1-.27-3.48,9.37,9.37,0,0,1-8.29,4.28c-5.25,0-8.62-3.64-8.62-7.71C142.61,496.69,146,494.12,150.42,493.48Zm8.94,3.69V496l-7.87,1.18c-2.14.32-3.75,1.55-3.75,3.85a3.91,3.91,0,0,0,4.17,3.75C156,504.77,159.36,502.79,159.36,497.17Z"
              transform="translate(-27.54 -48.83)"/>
        <path class="cls-1"
              d="M174.36,499.9c.32,2.68,2.36,4.82,6,4.82,2.84,0,4.39-1.61,4.39-3.43,0-1.61-1.18-2.84-3.32-3.32L177,497c-4-.86-6.42-3.59-6.42-7.23,0-4.39,4.12-8.14,9.15-8.14,7.06,0,9.26,4.6,9.79,6.9l-4.44,1.66a5,5,0,0,0-5.35-4.28c-2.57,0-4.28,1.66-4.28,3.43,0,1.55,1,2.68,2.94,3.1l4.18.91c4.66,1,7.12,3.85,7.12,7.66,0,3.64-3,8-9.42,8-7.06,0-10.06-4.55-10.49-7.49Z"
              transform="translate(-27.54 -48.83)"/>
        <path class="cls-1"
              d="M198.56,499.9c.32,2.68,2.36,4.82,6,4.82,2.83,0,4.39-1.61,4.39-3.43,0-1.61-1.18-2.84-3.32-3.32l-4.39-1c-4-.86-6.42-3.59-6.42-7.23,0-4.39,4.12-8.14,9.15-8.14,7.07,0,9.26,4.6,9.8,6.9l-4.44,1.66a5,5,0,0,0-5.35-4.28c-2.57,0-4.28,1.66-4.28,3.43,0,1.55,1,2.68,2.94,3.1l4.17.91c4.66,1,7.12,3.85,7.12,7.66,0,3.64-3,8-9.42,8-7.07,0-10.06-4.55-10.49-7.49Z"
              transform="translate(-27.54 -48.83)"/>
    </g>
</svg>