<?xml version="1.0" encoding="UTF-8" standalone="no"?>
<!DOCTYPE svg PUBLIC "-//W3C//DTD SVG 20010904//EN"
              "http://www.w3.org/TR/2001/REC-SVG-20010904/DTD/svg10.dtd">

<svg xmlns="http://www.w3.org/2000/svg"
     width="0.29in" height="0.663333in"
     viewBox="0 0 87 199">
  <path id="Auswahl"
        fill="none" stroke="black" stroke-width="1"
        d="M 44.00,1.00
           C 44.00,1.00 31.00,26.00 31.00,26.00
             31.00,26.00 38.00,26.00 38.00,26.00
             38.00,26.00 31.00,41.00 31.00,41.00
             31.00,41.00 57.00,41.00 57.00,41.00
             57.00,41.00 50.00,26.00 50.00,26.00
             50.00,26.00 57.00,26.00 57.00,26.00
             55.34,20.19 48.11,5.12 44.00,1.00 Z
           M 41.00,44.00
           C 41.00,44.00 41.00,66.00 41.00,66.00
             41.00,66.00 47.00,66.00 47.00,66.00
             47.00,66.00 47.00,44.00 47.00,44.00
             47.00,44.00 41.00,44.00 41.00,44.00 Z
           M 8.00,67.00
           C 8.00,67.00 9.00,88.00 9.00,88.00
             13.27,86.96 26.42,87.57 21.98,79.22
             21.25,77.85 20.56,77.57 20.00,77.00
             25.83,65.88 15.33,67.00 8.00,67.00 Z
           M 18.00,72.00
           C 18.00,72.00 18.00,74.00 18.00,74.00
             18.00,74.00 13.00,75.00 13.00,75.00
             13.00,75.00 13.00,71.00 13.00,71.00
             13.00,71.00 18.00,72.00 18.00,72.00 Z
           M 25.00,77.00
           C 25.00,77.00 34.00,77.00 34.00,77.00
             34.00,77.00 28.19,79.68 28.19,79.68
             24.37,81.75 24.88,85.80 28.19,87.23
             28.19,87.23 38.00,88.00 38.00,88.00
             38.00,85.41 38.28,78.18 37.40,76.14
             34.76,70.00 28.12,73.26 25.00,77.00 Z
           M 59.00,73.00
           C 59.00,73.00 60.00,88.00 60.00,88.00
             60.00,88.00 63.00,88.00 63.00,88.00
             63.00,88.00 64.00,77.00 64.00,77.00
             68.72,79.66 67.98,82.01 68.00,87.00
             68.00,87.00 72.00,88.00 72.00,88.00
             72.00,88.00 73.00,77.00 73.00,77.00
             78.16,79.91 76.31,82.07 78.00,88.00
             78.00,88.00 82.00,87.00 82.00,87.00
             81.04,82.67 81.82,78.38 80.65,76.15
             78.13,71.34 63.96,72.96 59.00,73.00 Z
           M 41.00,73.00
           C 41.00,79.59 39.77,88.00 49.00,87.66
             50.52,87.60 52.94,87.41 54.01,86.19
             55.51,84.46 55.00,75.61 55.00,73.00
             55.00,73.00 51.00,73.00 51.00,73.00
             50.99,74.71 51.23,83.17 47.83,82.31
             45.53,81.73 46.00,74.84 46.00,73.00
             46.00,73.00 41.00,73.00 41.00,73.00 Z
           M 18.00,83.00
           C 18.00,83.00 13.00,83.00 13.00,83.00
             13.00,83.00 13.00,79.00 13.00,79.00
             16.54,79.62 16.80,79.58 18.00,83.00 Z
           M 34.00,81.00
           C 34.00,81.00 31.00,85.00 31.00,85.00
             31.00,85.00 30.00,82.00 30.00,82.00
             30.00,82.00 34.00,81.00 34.00,81.00 Z
           M 29.60,96.15
           C 27.87,99.12 30.45,99.49 31.40,98.85
             32.36,98.21 33.01,95.69 29.60,96.15 Z
           M 55.00,116.00
           C 55.00,116.00 60.00,116.00 60.00,116.00
             60.00,116.00 60.00,106.00 60.00,106.00
             60.00,106.00 63.00,106.00 63.00,106.00
             62.45,103.13 62.71,103.13 60.00,102.00
             60.00,102.00 60.00,99.00 60.00,99.00
             60.00,99.00 63.00,99.00 63.00,99.00
             63.00,99.00 63.00,95.00 63.00,95.00
             57.99,95.41 53.52,98.40 53.47,104.00
             53.46,105.91 54.99,106.78 55.00,116.00 Z
           M 81.00,95.00
           C 81.00,95.00 81.00,116.00 81.00,116.00
             81.00,116.00 86.00,116.00 86.00,116.00
             86.00,116.00 84.98,96.60 84.98,96.60
             84.98,96.60 81.00,95.00 81.00,95.00 Z
           M 78.00,112.00
           C 78.00,112.00 69.00,110.00 69.00,110.00
             69.00,110.00 78.00,110.00 78.00,110.00
             77.87,107.75 77.93,105.47 76.26,103.70
             72.07,99.24 65.05,102.32 64.24,108.00
             63.14,115.80 73.21,120.96 78.00,112.00 Z
           M 2.00,102.00
           C 2.79,105.48 6.45,122.79 12.22,112.85
             12.22,112.85 14.00,109.00 14.00,109.00
             14.00,109.00 15.78,112.85 15.78,112.85
             21.64,122.94 25.22,105.44 26.00,102.00
             26.00,102.00 21.00,102.00 21.00,102.00
             21.00,102.00 19.00,109.00 19.00,109.00
             19.00,109.00 17.00,102.00 17.00,102.00
             17.00,102.00 11.00,102.00 11.00,102.00
             11.00,102.00 10.00,109.00 10.00,109.00
             10.00,109.00 8.00,109.00 8.00,109.00
             8.00,109.00 7.00,102.00 7.00,102.00
             7.00,102.00 2.00,102.00 2.00,102.00 Z
           M 28.00,102.00
           C 28.00,102.00 28.00,116.00 28.00,116.00
             28.00,116.00 33.00,116.00 33.00,116.00
             33.00,116.00 33.00,102.00 33.00,102.00
             33.00,102.00 28.00,102.00 28.00,102.00 Z
           M 36.00,102.00
           C 36.00,102.00 36.00,122.00 36.00,122.00
             36.00,122.00 41.00,122.00 41.00,122.00
             41.00,122.00 41.00,116.00 41.00,116.00
             53.13,118.64 53.36,107.09 49.49,103.60
             46.95,101.30 39.44,102.00 36.00,102.00 Z
           M 74.00,106.00
           C 74.00,106.00 69.00,107.00 69.00,107.00
             69.00,107.00 74.00,106.00 74.00,106.00 Z
           M 43.26,106.74
           C 48.27,106.99 46.77,111.55 44.76,111.95
             42.81,112.33 39.72,109.65 43.26,106.74 Z
           M 34.00,145.00
           C 34.00,145.00 38.00,145.00 38.00,145.00
             38.00,145.00 38.00,135.00 38.00,135.00
             41.07,133.93 40.93,134.07 42.00,131.00
             42.00,131.00 38.00,130.00 38.00,130.00
             38.00,130.00 42.00,128.00 42.00,128.00
             42.00,128.00 42.00,124.00 42.00,124.00
             36.74,124.31 32.51,127.06 32.47,133.00
             32.46,134.98 33.99,135.69 34.00,145.00 Z
           M 69.00,124.00
           C 69.00,124.00 69.00,131.00 69.00,131.00
             57.86,128.95 56.46,140.28 61.42,144.14
             64.41,146.47 70.25,145.08 74.00,145.00
             74.00,145.00 74.00,124.00 74.00,124.00
             74.00,124.00 69.00,124.00 69.00,124.00 Z
           M 15.00,131.00
           C 15.00,131.00 15.00,151.00 15.00,151.00
             15.00,151.00 20.00,151.00 20.00,151.00
             20.00,151.00 20.00,145.00 20.00,145.00
             31.66,147.26 31.92,136.38 28.30,132.65
             25.25,129.52 19.10,130.96 15.00,131.00 Z
           M 43.00,135.00
           C 43.00,135.00 52.00,135.00 52.00,135.00
             48.85,136.35 41.93,137.88 43.66,142.78
             44.08,143.99 44.98,144.76 46.15,145.11
             48.17,146.03 53.48,145.12 56.00,145.11
             56.00,142.08 56.42,135.57 54.98,133.23
             51.65,127.79 45.69,130.69 43.00,135.00 Z
           M 22.26,135.74
           C 27.08,135.99 25.41,140.03 23.74,140.66
             21.92,141.36 18.63,138.72 22.26,135.74 Z
           M 65.26,135.74
           C 70.27,135.99 68.77,140.55 66.76,140.95
             64.81,141.33 61.72,138.65 65.26,135.74 Z
           M 51.00,139.00
           C 51.00,139.00 48.00,142.00 48.00,142.00
             48.00,142.00 49.00,139.00 49.00,139.00
             49.00,139.00 51.00,139.00 51.00,139.00 Z
           M 41.00,151.00
           C 41.00,151.00 42.02,171.40 42.02,171.40
             42.02,171.40 47.00,173.00 47.00,173.00
             47.00,173.00 47.00,151.00 47.00,151.00
             47.00,151.00 41.00,151.00 41.00,151.00 Z
           M 42.00,175.65
           C 37.27,177.65 33.96,180.55 33.42,186.00
             32.66,193.76 40.45,200.49 48.00,198.43
             62.15,194.56 58.92,172.53 42.00,175.65 Z" />
</svg>
