<svg xmlns="http://www.w3.org/2000/svg" id="Ebene_1" data-name="Ebene 1"
     viewBox="0 0 93.13 151.94" width="93.13" height="151.94">
    <defs>
        <style>.cls-1{fill:#ec6707;}.cls-2{fill:#00843d;}.cls-3{fill:#abd107;}.cls-4{fill:#4e3629;}</style>
    </defs>
    <title>logo-baumwipfelpfad-salzkammergut</title>
    <rect class="cls-1" x="44.66" y="29.57" width="3.91" height="14.75"/>
    <polygon class="cls-2"
             points="46.62 0 37.59 17.45 42.91 17.45 37.59 27.72 55.64 27.72 50.32 17.45 55.64 17.45 46.62 0"/>
    <rect class="cls-1" x="44.66" y="119.46" width="3.91" height="14.75"/>
    <path class="cls-3" d="M55.79,144.55a8,8,0,1,1-8-8,8,8,0,0,1,8,8" transform="translate(-1.18 -0.61)"/>
    <path class="cls-4"
          d="M28.05,45.88c2.8,0,4.42,1.62,4.42,3.8a3.17,3.17,0,0,1-2.08,3A3.32,3.32,0,0,1,32.91,56c0,2.32-1.76,4-4.44,4H22.75V45.88Zm-.5,5.68c1.1,0,1.82-.58,1.82-1.54s-.62-1.52-1.86-1.52H25.83v3.06Zm.26,5.92c1.22,0,2-.64,2-1.66s-.72-1.66-2-1.66h-2v3.32Z"
          transform="translate(-1.18 -0.61)"/>
    <path class="cls-4"
          d="M37.31,54.32,39.65,54c.54-.08.72-.34.72-.68,0-.58-.5-1.08-1.46-1.08a1.6,1.6,0,0,0-1.7,1.46l-2.64-.54c.12-1.42,1.44-3.3,4.36-3.3,3.22,0,4.4,1.8,4.4,3.84v4.86a9.77,9.77,0,0,0,.12,1.54H40.71a4.86,4.86,0,0,1-.1-1.12,3.14,3.14,0,0,1-2.8,1.4,3.14,3.14,0,0,1-3.44-3A3.05,3.05,0,0,1,37.31,54.32Zm3.06,1.84v-.44l-1.88.3c-.64.1-1.12.4-1.12,1.1,0,.52.34,1,1.18,1S40.37,57.7,40.37,56.16Z"
          transform="translate(-1.18 -0.61)"/>
    <path class="cls-4"
          d="M52.11,59.06a3.09,3.09,0,0,1-2.66,1.22,3.65,3.65,0,0,1-3.78-3.88V50.12h3v5.64a1.54,1.54,0,0,0,1.6,1.72A1.59,1.59,0,0,0,52,55.78V50.12h3v8.16a15.59,15.59,0,0,0,.1,1.78H52.19A7.24,7.24,0,0,1,52.11,59.06Z"
          transform="translate(-1.18 -0.61)"/>
    <path class="cls-4"
          d="M57.69,60.06V50.12h2.9v1.14a3.46,3.46,0,0,1,2.86-1.44,3.08,3.08,0,0,1,2.94,1.56,3.41,3.41,0,0,1,3.08-1.56,3.48,3.48,0,0,1,3.68,3.8v6.44H70.21V54.3a1.51,1.51,0,0,0-1.58-1.68A1.62,1.62,0,0,0,67,54.32v5.74H64V54.3a1.51,1.51,0,0,0-1.6-1.68,1.62,1.62,0,0,0-1.64,1.72v5.72Z"
          transform="translate(-1.18 -0.61)"/>
    <path class="cls-4"
          d="M28.42,70.12,30.36,76,32,70.12h3l-3.08,9.94h-3l-2.16-6.42-2.12,6.42H21.54l-3.12-9.94h3.16L23.24,76l2-5.88Z"
          transform="translate(-1.18 -0.61)"/>
    <path class="cls-4" d="M38.06,65.3a1.78,1.78,0,1,1-1.76,1.78A1.79,1.79,0,0,1,38.06,65.3Zm-1.5,14.76V70.12h3v9.94Z"
          transform="translate(-1.18 -0.61)"/>
    <path class="cls-4"
          d="M42.26,83.86V70.12H45.2v1a3.54,3.54,0,0,1,2.92-1.26c2.88,0,4.62,2.2,4.62,5.18s-2,5.22-4.74,5.22a3.49,3.49,0,0,1-2.7-1v4.58ZM47.5,72.62a2.22,2.22,0,0,0-2.24,2.46,2.26,2.26,0,1,0,4.5,0A2.22,2.22,0,0,0,47.5,72.62Z"
          transform="translate(-1.18 -0.61)"/>
    <path class="cls-4"
          d="M58.2,72.68v7.38h-3V72.68H53.58V70.12h1.58v-.86A3.55,3.55,0,0,1,59,65.42a3.67,3.67,0,0,1,1.44.22v2.48a3.41,3.41,0,0,0-.9-.1,1.21,1.21,0,0,0-1.3,1.34v.76h2.16v2.56Z"
          transform="translate(-1.18 -0.61)"/>
    <path class="cls-4"
          d="M70.86,77.2a4.46,4.46,0,0,1-4.58,3.16,5.28,5.28,0,0,1-.22-10.54c3.08,0,5,1.9,5,5.1a6.34,6.34,0,0,1-.06.94H64.06a2.15,2.15,0,0,0,2.26,1.92,1.92,1.92,0,0,0,2-1.3ZM68.1,73.9a1.78,1.78,0,0,0-2-1.68,1.89,1.89,0,0,0-2,1.68Z"
          transform="translate(-1.18 -0.61)"/>
    <path class="cls-4" d="M73,80.06V65.58h3V80.06Z" transform="translate(-1.18 -0.61)"/>
    <path class="cls-4"
          d="M27.61,103.87V90.12h2.94v1a3.54,3.54,0,0,1,2.92-1.26c2.88,0,4.62,2.2,4.62,5.18s-2,5.23-4.74,5.23a3.5,3.5,0,0,1-2.7-1v4.59Zm5.24-11.25a2.22,2.22,0,0,0-2.24,2.46,2.26,2.26,0,1,0,4.5,0A2.22,2.22,0,0,0,32.85,92.62Z"
          transform="translate(-1.18 -0.61)"/>
    <path class="cls-4"
          d="M43.55,92.68v7.38h-3V92.68H38.93V90.12h1.58v-.86a3.55,3.55,0,0,1,3.8-3.84,3.67,3.67,0,0,1,1.44.22v2.48a3.41,3.41,0,0,0-.9-.1,1.21,1.21,0,0,0-1.3,1.34v.76h2.16v2.56Z"
          transform="translate(-1.18 -0.61)"/>
    <path class="cls-4"
          d="M49.61,94.32,52,94c.54-.08.72-.34.72-.68,0-.58-.5-1.08-1.46-1.08a1.6,1.6,0,0,0-1.7,1.46l-2.64-.54c.12-1.42,1.44-3.3,4.36-3.3,3.22,0,4.4,1.8,4.4,3.84v4.86a9.5,9.5,0,0,0,.12,1.54H53a4.77,4.77,0,0,1-.1-1.12,3.47,3.47,0,0,1-6.24-1.62A3.05,3.05,0,0,1,49.61,94.32Zm3.06,1.84v-.44l-1.88.3c-.64.1-1.12.4-1.12,1.1,0,.52.34,1,1.18,1S52.67,97.7,52.67,96.16Z"
          transform="translate(-1.18 -0.61)"/>
    <path class="cls-4"
          d="M67.91,98.28c0,.9.06,1.56.08,1.78H65.07a6.84,6.84,0,0,1-.08-1,3.21,3.21,0,0,1-2.66,1.19,4.93,4.93,0,0,1-4.92-5.23,4.85,4.85,0,0,1,4.82-5.18c1.7,0,2.44.64,2.68,1V85.58h3Zm-5.2-.72A2.24,2.24,0,0,0,65,95.08a2.25,2.25,0,1,0-4.48,0A2.24,2.24,0,0,0,62.71,97.56Z"
          transform="translate(-1.18 -0.61)"/>
    <path class="cls-1"
          d="M6.79,109.54a1.93,1.93,0,0,0-2-1.64,1.69,1.69,0,0,0-1.85,1.6,1.4,1.4,0,0,0,1.23,1.39l1.43.31a2.76,2.76,0,0,1,2.48,2.69,3,3,0,0,1-3.3,2.83,3.32,3.32,0,0,1-3.58-2.85l1.27-.4a2.17,2.17,0,0,0,2.29,2c1.33,0,2-.69,2-1.53a1.56,1.56,0,0,0-1.43-1.48l-1.36-.3a2.65,2.65,0,0,1-2.34-2.62,3.05,3.05,0,0,1,3.16-2.85A3,3,0,0,1,8,109.12Z"
          transform="translate(-1.18 -0.61)"/>
    <path class="cls-1"
          d="M11.25,112.81l1.76-.26c.39-.06.5-.26.5-.49,0-.63-.42-1.16-1.4-1.16a1.38,1.38,0,0,0-1.48,1.31l-1.21-.28a2.49,2.49,0,0,1,2.66-2.11c1.94,0,2.7,1.11,2.7,2.38v3.25a5.85,5.85,0,0,0,.08,1.07H13.62a4.46,4.46,0,0,1-.07-.88,2.36,2.36,0,0,1-2.09,1.08,2,2,0,1,1-.21-3.91Zm2.26.93v-.3l-2,.3a1,1,0,1,0,.1,1.91A1.7,1.7,0,0,0,13.51,113.74Z"
          transform="translate(-1.18 -0.61)"/>
    <path class="cls-1" d="M16.75,116.52v-9.78H18v9.78Z" transform="translate(-1.18 -0.61)"/>
    <path class="cls-1" d="M19.65,116.52v-1.11l3.56-4.24H19.7V110h5.09v1.11l-3.56,4.24h3.63v1.15Z"
          transform="translate(-1.18 -0.61)"/>
    <path class="cls-1" d="M29.53,112.76l2.83,3.76h-1.6l-2.12-2.86-.9.9v2H26.48v-9.78h1.26v6.16L30.55,110H32.3Z"
          transform="translate(-1.18 -0.61)"/>
    <path class="cls-1"
          d="M34.94,112.81l1.76-.26c.39-.06.49-.26.49-.49,0-.63-.41-1.16-1.4-1.16a1.37,1.37,0,0,0-1.47,1.31l-1.22-.28a2.51,2.51,0,0,1,2.66-2.11c2,0,2.7,1.11,2.7,2.38v3.25a5.51,5.51,0,0,0,.09,1.07H37.3a5.89,5.89,0,0,1-.06-.88,2.39,2.39,0,0,1-2.1,1.08,2,2,0,1,1-.2-3.91Zm2.25.93v-.3l-2,.3a1,1,0,0,0-1,1,1,1,0,0,0,1.06.94A1.7,1.7,0,0,0,37.19,113.74Z"
          transform="translate(-1.18 -0.61)"/>
    <path class="cls-1"
          d="M40.44,116.52V110h1.21v.87a2.25,2.25,0,0,1,2-1.06,2,2,0,0,1,1.94,1.23,2.34,2.34,0,0,1,2.18-1.23A2.23,2.23,0,0,1,50,112.31v4.21H48.73v-4.08A1.31,1.31,0,0,0,47.35,111a1.51,1.51,0,0,0-1.5,1.63v3.93H44.58v-4.08A1.3,1.3,0,0,0,43.21,111a1.5,1.5,0,0,0-1.51,1.64v3.92Z"
          transform="translate(-1.18 -0.61)"/>
    <path class="cls-1"
          d="M52,116.52V110h1.21v.87a2.25,2.25,0,0,1,2-1.06,2,2,0,0,1,1.94,1.23,2.33,2.33,0,0,1,2.17-1.23,2.23,2.23,0,0,1,2.25,2.48v4.21H60.31v-4.08A1.31,1.31,0,0,0,58.93,111a1.51,1.51,0,0,0-1.5,1.63v3.93H56.16v-4.08A1.3,1.3,0,0,0,54.79,111a1.5,1.5,0,0,0-1.52,1.64v3.92Z"
          transform="translate(-1.18 -0.61)"/>
    <path class="cls-1"
          d="M69.26,114.67a3,3,0,0,1-2.92,2,3.46,3.46,0,0,1-.16-6.9c2,0,3.12,1.38,3.12,3.4a3.32,3.32,0,0,1,0,.41H64.38a1.93,1.93,0,0,0,2,2,1.77,1.77,0,0,0,1.82-1.31ZM68,112.6a1.63,1.63,0,0,0-1.78-1.66,1.75,1.75,0,0,0-1.77,1.66Z"
          transform="translate(-1.18 -0.61)"/>
    <path class="cls-1"
          d="M74.53,111.31a3.6,3.6,0,0,0-.56,0c-1.06,0-1.78.56-1.78,2v3.26H70.92V110h1.24v1.14a2.06,2.06,0,0,1,2-1.25,1.83,1.83,0,0,1,.42,0Z"
          transform="translate(-1.18 -0.61)"/>
    <path class="cls-1"
          d="M76.57,116.59a1.72,1.72,0,0,0,1.77,1.59c1.36,0,2-.7,2-2.11v-.93a2.17,2.17,0,0,1-2,1.07,3.16,3.16,0,0,1,0-6.31,2,2,0,0,1,2,1V110h1.26v6a3,3,0,0,1-3.25,3.26,2.85,2.85,0,0,1-3-2.42Zm3.81-3.53a1.88,1.88,0,1,0-3.73,0,1.88,1.88,0,1,0,3.73,0Z"
          transform="translate(-1.18 -0.61)"/>
    <path class="cls-1"
          d="M85.92,116.72a2.4,2.4,0,0,1-2.43-2.61V110h1.26v3.91c0,.89.41,1.67,1.48,1.67a1.47,1.47,0,0,0,1.54-1.66V110H89v5.3c0,.51,0,1,.06,1.2H87.89a5.19,5.19,0,0,1-.06-.79A2.11,2.11,0,0,1,85.92,116.72Z"
          transform="translate(-1.18 -0.61)"/>
    <path class="cls-1"
          d="M92.9,110h1.41v1.15H92.9v3.38c0,.59.24.89.91.89a2.36,2.36,0,0,0,.5-.06v1.08a2.78,2.78,0,0,1-.87.13,1.69,1.69,0,0,1-1.81-1.85v-3.57H90.39V110h.35a.91.91,0,0,0,1-1v-1H92.9Z"
          transform="translate(-1.18 -0.61)"/>
</svg>