<svg xmlns="http://www.w3.org/2000/svg" id="Ebene_1" data-name="Ebene 1"
     viewBox="0 0 378.28 804.72" width="378.28" height="804.72">
    <defs>
        <style>.cls-1{fill:#ec6707;}.cls-2{fill:#00843d;}.cls-3{fill:#abd107;}.cls-4{fill:#4e3629;}</style>
    </defs>
    <title>logo-baumwipfelpfad-saarschleife</title>
    <rect class="cls-1" x="178.57" y="156.24" width="20.65" height="77.96"/>
    <polygon class="cls-2"
             points="236.57 146.5 208.5 92.19 236.57 92.19 188.92 0 141.21 92.19 169.31 92.19 141.21 146.5 236.57 146.5"/>
    <rect class="cls-1" x="178.57" y="633.12" width="20.65" height="77.96"/>
    <path class="cls-3" d="M233.41,765a42.28,42.28,0,1,1-42.29-42.28A42.29,42.29,0,0,1,233.41,765"
          transform="translate(-2.24 -2.48)"/>
    <path class="cls-4"
          d="M86.86,241.76c14.78,0,23.33,8.56,23.33,20.07,0,7.71-4.85,14-11,16.05a17.52,17.52,0,0,1,13.31,17.53c0,12.25-9.29,21.23-23.45,21.23H58.87V241.76Zm-2.64,30c5.8,0,9.61-3.06,9.61-8.13,0-4.86-3.28-8-9.83-8H75.13v16.15ZM85.59,303c6.44,0,10.35-3.38,10.35-8.76,0-5.18-3.8-8.77-10.35-8.77H75.13V303Z"
          transform="translate(-2.24 -2.48)"/>
    <path class="cls-4"
          d="M135.75,286.33l12.35-1.9c2.85-.43,3.8-1.8,3.8-3.59,0-3.07-2.64-5.71-7.7-5.71-5.6,0-8.66,3.81-9,7.71L121.28,280c.63-7.5,7.6-17.42,23-17.42,17,0,23.23,9.5,23.23,20.27V308.5a50.81,50.81,0,0,0,.64,8.14H153.7a25.47,25.47,0,0,1-.53-5.92c-2.74,4.44-7.81,7.4-14.78,7.4-11.51,0-18.17-7.61-18.17-15.95C120.22,292.88,127.09,287.6,135.75,286.33ZM151.9,296v-2.32L142,295.3c-3.38.53-5.92,2.12-5.92,5.81,0,2.75,1.8,5.39,6.23,5.39C147.05,306.5,151.9,304.18,151.9,296Z"
          transform="translate(-2.24 -2.48)"/>
    <path class="cls-4"
          d="M214,311.36c-2.75,4.54-8.77,6.44-14.05,6.44-12.78,0-20-9.3-20-20.49V264.15h16v29.78c0,5.07,2.75,9.08,8.45,9.08,5.39,0,8.77-3.69,8.77-9V264.15h16.05v43.09a81.18,81.18,0,0,0,.53,9.4H214.42A38.46,38.46,0,0,1,214,311.36Z"
          transform="translate(-2.24 -2.48)"/>
    <path class="cls-4"
          d="M243.46,316.64V264.15h15.31v6c2.64-4.65,9.4-7.6,15.1-7.6,7.5,0,12.88,3.06,15.53,8.23,4.11-5.91,9.18-8.23,16.26-8.23,9.92,0,19.43,5.8,19.43,20.06v34H309.57V286.22c0-5-2.64-8.87-8.35-8.87s-8.76,4.33-8.76,9v30.31H276.62V286.22c0-5-2.64-8.87-8.45-8.87-5.6,0-8.66,4.33-8.66,9.08v30.21Z"
          transform="translate(-2.24 -2.48)"/>
    <path class="cls-4"
          d="M88.81,369.75,99.06,400.9l8.76-31.15h15.74l-16.27,52.49H91.35l-11.41-33.9-11.19,33.9H52.48L36,369.75H52.69l8.77,31.05,10.35-31.05Z"
          transform="translate(-2.24 -2.48)"/>
    <path class="cls-4"
          d="M139.71,344.3a9.4,9.4,0,1,1-9.3,9.4A9.44,9.44,0,0,1,139.71,344.3Zm-7.92,77.94V369.75h16.05v52.49Z"
          transform="translate(-2.24 -2.48)"/>
    <path class="cls-4"
          d="M161.88,442.3V369.75h15.53v5.39c2.21-3.38,7.92-6.66,15.42-6.66,15.2,0,24.39,11.62,24.39,27.36,0,16.05-10.35,27.56-25,27.56-6.76,0-11.83-2.33-14.26-5.28V442.3ZM189.55,383c-6.23,0-11.83,4.23-11.83,13s5.6,13.1,11.83,13.1,11.93-4.33,11.93-13.1S195.89,383,189.55,383Z"
          transform="translate(-2.24 -2.48)"/>
    <path class="cls-4"
          d="M246.05,383.27v39H230v-39h-8.34V369.75H230v-4.54c0-12,7.29-20.28,20.07-20.28,3.27,0,6.12.43,7.6,1.16v13.1a17.94,17.94,0,0,0-4.75-.53c-2.85,0-6.86,1.27-6.86,7.08v4h11.4v13.52Z"
          transform="translate(-2.24 -2.48)"/>
    <path class="cls-4"
          d="M313,407.14c-2.54,9.08-10.88,16.68-24.19,16.68-14.46,0-27.35-10.35-27.35-28,0-16.9,12.57-27.67,26.19-27.67,16.26,0,26.3,10,26.3,26.93a32.77,32.77,0,0,1-.32,5H277.09c.32,5.91,5.7,10.14,11.93,10.14,5.81,0,9.09-2.75,10.56-6.87Zm-14.58-17.43c-.21-4-2.95-8.87-10.56-8.87-6.76,0-10.14,5-10.45,8.87Z"
          transform="translate(-2.24 -2.48)"/>
    <path class="cls-4" d="M324.29,422.24V345.78h16v76.46Z" transform="translate(-2.24 -2.48)"/>
    <path class="cls-4"
          d="M84.48,547.9V475.35H100v5.39c2.22-3.38,7.92-6.66,15.42-6.66,15.21,0,24.4,11.62,24.4,27.35,0,16.06-10.35,27.57-25,27.57-6.76,0-11.83-2.33-14.26-5.28V547.9Zm27.67-59.35c-6.23,0-11.83,4.22-11.83,13s5.6,13.1,11.83,13.1,11.93-4.33,11.93-13.1S118.48,488.55,112.15,488.55Z"
          transform="translate(-2.24 -2.48)"/>
    <path class="cls-4"
          d="M168.64,488.87v39h-16v-39h-8.34V475.35h8.34v-4.54c0-12,7.29-20.28,20.07-20.28,3.27,0,6.12.43,7.6,1.16v13.1a18.08,18.08,0,0,0-4.75-.53c-2.85,0-6.87,1.27-6.87,7.08v4h11.41v13.52Z"
          transform="translate(-2.24 -2.48)"/>
    <path class="cls-4"
          d="M200.74,497.53l12.36-1.9c2.85-.43,3.8-1.8,3.8-3.59,0-3.07-2.64-5.71-7.71-5.71-5.6,0-8.66,3.81-9,7.71l-13.93-2.85c.63-7.5,7.6-17.42,23-17.42,17,0,23.23,9.5,23.23,20.27V519.7a52.72,52.72,0,0,0,.63,8.14H218.7a25.47,25.47,0,0,1-.53-5.92c-2.75,4.44-7.82,7.39-14.79,7.39-11.51,0-18.16-7.6-18.16-15.94C185.22,504.07,192.08,498.79,200.74,497.53Zm16.16,9.71v-2.32L207,506.5c-3.38.53-5.91,2.12-5.91,5.81,0,2.75,1.8,5.39,6.23,5.39C212,517.7,216.9,515.37,216.9,507.24Z"
          transform="translate(-2.24 -2.48)"/>
    <path class="cls-4"
          d="M297.47,518.44c0,4.75.32,8.23.43,9.4H282.48a35.68,35.68,0,0,1-.42-5.07c-2.43,3.59-7.71,6.23-14.05,6.23-14.79,0-26-11.41-26-27.57,0-15.63,10.56-27.35,25.45-27.35,9,0,12.89,3.38,14.15,5.39V451.38h15.84ZM270,514.64c6.23,0,11.82-4.44,11.82-13.1s-5.59-13-11.82-13-11.83,4.22-11.83,13S263.79,514.64,270,514.64Z"
          transform="translate(-2.24 -2.48)"/>
    <path class="cls-1"
          d="M31.89,578.11c-.57-3.64-3.63-8.63-10.69-8.63-5.7,0-9.76,3.71-9.76,8.41,0,3.64,2.21,6.42,6.48,7.35l7.56,1.63c8.41,1.86,13.11,7.13,13.11,14.19,0,7.84-6.7,15-17.46,15-12.19,0-18-7.85-18.89-15l6.7-2.14c.5,5.63,4.49,10.83,12.12,10.83,7,0,10.41-3.63,10.41-8,0-3.64-2.5-6.77-7.56-7.84l-7.2-1.57C9.51,590.65,4.38,586,4.38,578.39c0-7.91,7.34-15,16.68-15,11.4,0,16,7.06,17.1,12.55Z"
          transform="translate(-2.24 -2.48)"/>
    <path class="cls-1"
          d="M55.13,595.36,64.4,594c2.06-.28,2.63-1.35,2.63-2.56,0-3.35-2.21-6.13-7.41-6.13-4.7,0-7.34,2.92-7.77,6.91l-6.41-1.5c.71-6.55,6.63-11.12,14-11.12,10.26,0,14.25,5.85,14.25,12.55v17.18a32.5,32.5,0,0,0,.43,5.63H67.6a25.62,25.62,0,0,1-.35-4.64c-1.5,2.43-4.92,5.71-11,5.71-7,0-11.48-4.85-11.48-10.27C44.72,599.63,49.21,596.21,55.13,595.36ZM67,600.27v-1.56l-10.47,1.56c-2.86.43-5,2.07-5,5.14,0,2.56,2.13,5,5.56,5C62.61,610.39,67,607.76,67,600.27Z"
          transform="translate(-2.24 -2.48)"/>
    <path class="cls-1"
          d="M91.77,595.36,101,594c2.07-.28,2.64-1.35,2.64-2.56,0-3.35-2.21-6.13-7.41-6.13-4.71,0-7.34,2.92-7.77,6.91l-6.41-1.5c.71-6.55,6.62-11.12,14-11.12,10.26,0,14.25,5.85,14.25,12.55v17.18a32.5,32.5,0,0,0,.43,5.63h-6.56a25.62,25.62,0,0,1-.35-4.64c-1.5,2.43-4.92,5.71-11,5.71-7,0-11.48-4.85-11.48-10.27C81.36,599.63,85.85,596.21,91.77,595.36Zm11.9,4.91v-1.56l-10.48,1.56c-2.85.43-5,2.07-5,5.14,0,2.56,2.14,5,5.56,5C99.25,610.39,103.67,607.76,103.67,600.27Z"
          transform="translate(-2.24 -2.48)"/>
    <path class="cls-1"
          d="M139.17,587.44a21.35,21.35,0,0,0-2.92-.21c-5.63,0-9.41,3-9.41,10.55V615h-6.7V580.67h6.56v6A10.74,10.74,0,0,1,137,580.1a12.6,12.6,0,0,1,2.21.22Z"
          transform="translate(-2.24 -2.48)"/>
    <path class="cls-1"
          d="M148.51,603.91c.42,3.56,3.13,6.41,8,6.41,3.78,0,5.84-2.14,5.84-4.56,0-2.14-1.56-3.78-4.41-4.42l-5.85-1.28c-5.34-1.14-8.55-4.78-8.55-9.62,0-5.85,5.49-10.84,12.19-10.84,9.4,0,12.33,6.13,13,9.2L162.83,591c-.28-1.78-1.71-5.7-7.12-5.7-3.42,0-5.71,2.21-5.71,4.56,0,2.06,1.29,3.56,3.92,4.13l5.56,1.21c6.2,1.36,9.48,5.14,9.48,10.2,0,4.84-4.06,10.62-12.54,10.62-9.41,0-13.4-6.06-14-10Z"
          transform="translate(-2.24 -2.48)"/>
    <path class="cls-1"
          d="M181.22,597.78c0,7.84,4.92,12,10.48,12a9.3,9.3,0,0,0,9.55-7.05l5.92,2.56A15.76,15.76,0,0,1,191.7,616c-10,0-17.32-7.85-17.32-18.25,0-10.69,7.49-18.18,17.25-18.18,9.12,0,13.83,5.71,15.25,10.91l-6,2.57c-.86-3.35-3.35-7.28-9.2-7.28C186.21,585.8,181.22,589.8,181.22,597.78Z"
          transform="translate(-2.24 -2.48)"/>
    <path class="cls-1"
          d="M221.07,615h-6.7V563.35h6.7v21.32c2.49-3.64,6.49-5,10.41-5,8.19,0,12.26,5.91,12.26,13.54V615H237v-20.6c0-4.78-2-8.63-8-8.63-5.13,0-7.84,4-8,9.06Z"
          transform="translate(-2.24 -2.48)"/>
    <path class="cls-1" d="M253.79,615V563.35h6.7V615Z" transform="translate(-2.24 -2.48)"/>
    <path class="cls-1"
          d="M301.11,605.19c-1.92,6.06-7.41,10.84-15.39,10.84-9.19,0-17.25-6.7-17.25-18.32,0-10.76,7.77-18.11,16.39-18.11,10.55,0,16.47,7.27,16.47,18a15.16,15.16,0,0,1-.14,2.13H275.38c.15,6.13,4.57,10.41,10.34,10.41,5.56,0,8.34-3.06,9.62-6.91Zm-6.77-10.9c-.14-4.92-3.35-8.77-9.4-8.77a9.22,9.22,0,0,0-9.34,8.77Z"
          transform="translate(-2.24 -2.48)"/>
    <path class="cls-1"
          d="M312.52,562.85a4.82,4.82,0,1,1-4.77,4.85A4.81,4.81,0,0,1,312.52,562.85ZM309.24,615V580.67h6.63V615Z"
          transform="translate(-2.24 -2.48)"/>
    <path class="cls-1"
          d="M335.62,586.73V615H328.7V586.73h-6.34v-6.06h6.34V574.9c0-7.63,5.06-11.76,11.26-11.76a8.7,8.7,0,0,1,4,.71v6a7.73,7.73,0,0,0-2.92-.43c-2.35,0-5.41,1.14-5.41,5.85v5.41h8.26v6.06Z"
          transform="translate(-2.24 -2.48)"/>
    <path class="cls-1"
          d="M380.3,605.19c-1.92,6.06-7.41,10.84-15.39,10.84-9.19,0-17.25-6.7-17.25-18.32,0-10.76,7.77-18.11,16.39-18.11,10.55,0,16.47,7.27,16.47,18a15.16,15.16,0,0,1-.14,2.13h-25.8c.14,6.13,4.56,10.41,10.33,10.41,5.56,0,8.34-3.06,9.62-6.91Zm-6.77-10.9c-.14-4.92-3.35-8.77-9.4-8.77a9.22,9.22,0,0,0-9.34,8.77Z"
          transform="translate(-2.24 -2.48)"/>
</svg>