<svg xmlns="http://www.w3.org/2000/svg" id="Vrstva_1" data-name="Vrstva 1"
     viewBox="0 0 88.46 170.08" width="88.46" height="170.08">
    <defs>
        <style>.cls-1{fill:#ec6707;}.cls-2{fill:#00843d;}.cls-3{fill:#abd107;}.cls-4{fill:#4e3629;}</style>
    </defs>
    <title>logo-baumwipfelpfad-schwarzwald</title>
    <rect class="cls-1" x="42.3" y="33.02" width="4.36" height="16.48"/>
    <polygon class="cls-2"
             points="54.56 30.96 48.63 19.48 54.56 19.48 44.49 0 34.41 19.48 40.35 19.48 34.41 30.96 54.56 30.96"/>
    <rect class="cls-1" x="42.3" y="133.81" width="4.36" height="16.48"/>
    <path class="cls-3" d="M54.31,162.22a8.94,8.94,0,1,1-8.93-8.93,8.93,8.93,0,0,1,8.93,8.93"
          transform="translate(-0.89 -1.07)"/>
    <path class="cls-4"
          d="M23.35,51.65c3.13,0,4.93,1.8,4.93,4.23A3.55,3.55,0,0,1,26,59.28,3.69,3.69,0,0,1,28.77,63c0,2.59-2,4.49-4.95,4.49H17.44V51.65ZM22.79,58c1.23,0,2-.64,2-1.71s-.69-1.7-2.07-1.7H20.87V58Zm.29,6.61c1.36,0,2.19-.72,2.19-1.85s-.8-1.86-2.19-1.86H20.87v3.71Z"
          transform="translate(-0.89 -1.07)"/>
    <path class="cls-4"
          d="M33.68,61.06l2.62-.4c.6-.09.8-.38.8-.76,0-.64-.56-1.2-1.63-1.2a1.79,1.79,0,0,0-1.9,1.63l-2.94-.61c.13-1.58,1.6-3.68,4.86-3.68,3.6,0,4.91,2,4.91,4.29v5.42a9.7,9.7,0,0,0,.14,1.72H37.48a5.64,5.64,0,0,1-.11-1.25,3.49,3.49,0,0,1-3.13,1.56c-2.43,0-3.84-1.61-3.84-3.37C30.4,62.45,31.85,61.33,33.68,61.06Zm3.42,2v-.49L35,63c-.71.11-1.25.45-1.25,1.23,0,.58.38,1.14,1.32,1.14S37.1,64.84,37.1,63.11Z"
          transform="translate(-0.89 -1.07)"/>
    <path class="cls-4"
          d="M50.22,66.35a3.44,3.44,0,0,1-3,1.36A4.06,4.06,0,0,1,43,63.38v-7h3.39v6.29a1.72,1.72,0,0,0,1.78,1.92,1.77,1.77,0,0,0,1.86-1.9V56.38h3.39v9.1a18.19,18.19,0,0,0,.11,2H50.31A8.92,8.92,0,0,1,50.22,66.35Z"
          transform="translate(-0.89 -1.07)"/>
    <path class="cls-4"
          d="M56.45,67.47V56.38h3.24v1.27A3.85,3.85,0,0,1,62.88,56a3.44,3.44,0,0,1,3.28,1.74A3.8,3.8,0,0,1,69.59,56a3.89,3.89,0,0,1,4.11,4.24v7.19H70.42V61a1.68,1.68,0,0,0-1.76-1.87,1.8,1.8,0,0,0-1.86,1.89v6.41H63.46V61a1.69,1.69,0,0,0-1.79-1.87,1.8,1.8,0,0,0-1.83,1.92v6.38Z"
          transform="translate(-0.89 -1.07)"/>
    <path class="cls-4"
          d="M23.75,78.69l2.17,6.59,1.85-6.59h3.32l-3.43,11.1H24.29l-2.41-7.17-2.37,7.17H16.08l-3.49-11.1h3.53L18,85.26l2.19-6.57Z"
          transform="translate(-0.89 -1.07)"/>
    <path class="cls-4" d="M34.51,73.32a2,2,0,1,1-2,2A2,2,0,0,1,34.51,73.32ZM32.84,89.79V78.69h3.39v11.1Z"
          transform="translate(-0.89 -1.07)"/>
    <path class="cls-4"
          d="M39.2,94V78.69h3.28v1.14a4,4,0,0,1,3.26-1.4c3.21,0,5.15,2.45,5.15,5.78S48.7,90,45.6,90a3.9,3.9,0,0,1-3-1.11V94ZM45,81.48a2.47,2.47,0,0,0-2.49,2.75A2.52,2.52,0,1,0,45,81.48Z"
          transform="translate(-0.89 -1.07)"/>
    <path class="cls-4"
          d="M57,81.55v8.24H53.59V81.55H51.83V78.69h1.76v-1a4,4,0,0,1,4.24-4.28,4,4,0,0,1,1.61.25v2.76a4.06,4.06,0,0,0-1-.11A1.35,1.35,0,0,0,57,77.85v.84h2.41v2.86Z"
          transform="translate(-0.89 -1.07)"/>
    <path class="cls-4"
          d="M71.13,86.6A5,5,0,0,1,66,90.12a5.89,5.89,0,0,1-.24-11.76c3.44,0,5.56,2.12,5.56,5.69a7.3,7.3,0,0,1-.07,1H63.55a2.39,2.39,0,0,0,2.52,2.14,2.14,2.14,0,0,0,2.23-1.45Zm-3.08-3.69A2,2,0,0,0,65.82,81a2.12,2.12,0,0,0-2.21,1.87Z"
          transform="translate(-0.89 -1.07)"/>
    <path class="cls-4" d="M73.52,89.79V73.63h3.4V89.79Z" transform="translate(-0.89 -1.07)"/>
    <path class="cls-4"
          d="M22.86,116.35V101h3.28v1.14a4,4,0,0,1,3.26-1.4c3.21,0,5.15,2.45,5.15,5.78s-2.18,5.82-5.28,5.82a3.91,3.91,0,0,1-3-1.12v5.12Zm5.85-12.55a2.47,2.47,0,0,0-2.5,2.75,2.52,2.52,0,1,0,5,0A2.48,2.48,0,0,0,28.71,103.8Z"
          transform="translate(-0.89 -1.07)"/>
    <path class="cls-4"
          d="M40.65,103.87v8.24H37.26v-8.24H35.49V101h1.77v-1a4,4,0,0,1,4.24-4.28,4,4,0,0,1,1.6.25v2.76a4.06,4.06,0,0,0-1-.11,1.35,1.35,0,0,0-1.45,1.5V101h2.41v2.86Z"
          transform="translate(-0.89 -1.07)"/>
    <path class="cls-4"
          d="M47.43,105.7l2.61-.4c.61-.09.81-.38.81-.76,0-.65-.56-1.21-1.63-1.21a1.8,1.8,0,0,0-1.9,1.63l-2.94-.6c.13-1.58,1.6-3.68,4.86-3.68,3.59,0,4.91,2,4.91,4.28v5.43a11.62,11.62,0,0,0,.13,1.72H51.23a4.82,4.82,0,0,1-.12-1.25A3.51,3.51,0,0,1,48,112.42c-2.43,0-3.84-1.61-3.84-3.37C44.15,107.08,45.6,106,47.43,105.7Zm3.42,2v-.49l-2.1.34c-.71.11-1.25.44-1.25,1.22,0,.58.38,1.14,1.32,1.14S50.85,109.47,50.85,107.75Z"
          transform="translate(-0.89 -1.07)"/>
    <path class="cls-4"
          d="M67.88,110.12a19.09,19.09,0,0,0,.09,2H64.71a6.73,6.73,0,0,1-.09-1.08,3.59,3.59,0,0,1-3,1.32,5.48,5.48,0,0,1-5.49-5.82c0-3.31,2.23-5.78,5.38-5.78,1.9,0,2.72.71,3,1.13V96h3.35Zm-5.81-.8a2.5,2.5,0,0,0,2.5-2.77,2.51,2.51,0,1,0-5,0A2.51,2.51,0,0,0,62.07,109.32Z"
          transform="translate(-0.89 -1.07)"/>
    <path class="cls-1"
          d="M7.16,122.73a2.16,2.16,0,0,0-2.26-1.82,1.88,1.88,0,0,0-2.06,1.77,1.55,1.55,0,0,0,1.37,1.56l1.59.34c1.78.39,2.78,1.51,2.78,3,0,1.66-1.42,3.16-3.69,3.16a3.71,3.71,0,0,1-4-3.18l1.42-.45a2.42,2.42,0,0,0,2.56,2.29c1.48,0,2.2-.77,2.2-1.7,0-.77-.53-1.43-1.6-1.66L4,125.71a3,3,0,0,1-2.61-2.92,3.41,3.41,0,0,1,3.53-3.18,3.38,3.38,0,0,1,3.62,2.65Z"
          transform="translate(-0.89 -1.07)"/>
    <path class="cls-1"
          d="M11.17,126.89a2.28,2.28,0,0,0,2.21,2.54,2,2,0,0,0,2-1.49l1.25.54a3.33,3.33,0,0,1-3.27,2.26,3.86,3.86,0,0,1,0-7.7,3.15,3.15,0,0,1,3.22,2.31l-1.28.54a1.9,1.9,0,0,0-1.94-1.53A2.25,2.25,0,0,0,11.17,126.89Z"
          transform="translate(-0.89 -1.07)"/>
    <path class="cls-1"
          d="M19.72,130.52H18.31V119.61h1.41v4.5a2.59,2.59,0,0,1,2.2-1,2.55,2.55,0,0,1,2.6,2.86v4.6H23.1v-4.36c0-1-.42-1.82-1.69-1.82a1.73,1.73,0,0,0-1.69,1.91Z"
          transform="translate(-0.89 -1.07)"/>
    <path class="cls-1"
          d="M32.32,123.27l1.88,5.45,1.6-5.45h1.49l-2.35,7.25H33.48L31.55,125l-1.88,5.52H28.18l-2.39-7.25h1.56L29,128.72l1.89-5.45Z"
          transform="translate(-0.89 -1.07)"/>
    <path class="cls-1"
          d="M40.41,126.37l2-.28c.43-.06.55-.29.55-.54,0-.71-.46-1.3-1.56-1.3a1.53,1.53,0,0,0-1.64,1.46l-1.36-.31a2.8,2.8,0,0,1,3-2.36c2.17,0,3,1.24,3,2.66v3.63a6.86,6.86,0,0,0,.09,1.19H43a6.67,6.67,0,0,1-.07-1,2.65,2.65,0,0,1-2.34,1.2,2.19,2.19,0,1,1-.22-4.37Zm2.51,1v-.34l-2.21.34a1.08,1.08,0,0,0-1.06,1.08,1.1,1.1,0,0,0,1.18,1.05A1.89,1.89,0,0,0,42.92,127.42Z"
          transform="translate(-0.89 -1.07)"/>
    <path class="cls-1"
          d="M50.56,124.7a4.4,4.4,0,0,0-.62,0c-1.19,0-2,.63-2,2.23v3.63H46.54v-7.25h1.39v1.27a2.26,2.26,0,0,1,2.17-1.39,2.1,2.1,0,0,1,.46,0Z"
          transform="translate(-0.89 -1.07)"/>
    <path class="cls-1" d="M51.62,130.52v-1.24l4-4.73H51.68v-1.28h5.68v1.24l-4,4.73h4v1.28Z"
          transform="translate(-0.89 -1.07)"/>
    <path class="cls-1"
          d="M64.78,123.27l1.89,5.45,1.59-5.45h1.5l-2.36,7.25H65.94L64,125l-1.89,5.52H60.64l-2.38-7.25h1.55l1.63,5.45,1.88-5.45Z"
          transform="translate(-0.89 -1.07)"/>
    <path class="cls-1"
          d="M72.87,126.37l2-.28c.44-.06.56-.29.56-.54,0-.71-.47-1.3-1.57-1.3a1.54,1.54,0,0,0-1.64,1.46l-1.36-.31a2.81,2.81,0,0,1,3-2.36c2.17,0,3,1.24,3,2.66v3.63a6.86,6.86,0,0,0,.09,1.19H75.51a5.15,5.15,0,0,1-.08-1,2.63,2.63,0,0,1-2.33,1.2,2.19,2.19,0,1,1-.23-4.37Zm2.52,1v-.34l-2.22.34a1.08,1.08,0,0,0-1,1.08,1.1,1.1,0,0,0,1.18,1.05A1.9,1.9,0,0,0,75.39,127.42Z"
          transform="translate(-0.89 -1.07)"/>
    <path class="cls-1" d="M79,130.52V119.61h1.42v10.91Z" transform="translate(-0.89 -1.07)"/>
    <path class="cls-1"
          d="M87.91,129.42a2.44,2.44,0,0,1-2.25,1.29c-2.12,0-3.43-1.68-3.43-3.84a3.55,3.55,0,0,1,3.43-3.79,2.24,2.24,0,0,1,2.22,1.21v-4.68h1.4v9.57c0,.69.06,1.22.07,1.34H88a6.28,6.28,0,0,1-.07-1Zm-2.11,0c1.3,0,2.09-1.13,2.09-2.62s-.78-2.51-2.08-2.51-2.13,1-2.13,2.54S84.44,129.46,85.8,129.46Z"
          transform="translate(-0.89 -1.07)"/>
</svg>