<svg xmlns="http://www.w3.org/2000/svg" id="Ebene_1" data-name="Ebene 1"
     viewBox="0 0 231.68 611" width="231.68" height="611">
    <defs>
        <style>.cls-1{fill:#ec6707;}.cls-2{fill:#00843d;}.cls-3{fill:#4e3629;}.cls-4{fill:#abd107;}</style>
    </defs>
    <g id="Ebene_3" data-name="Ebene 3">
        <rect class="cls-1" x="110.24" y="118.87" width="15.71" height="59.32"/>
        <polygon class="cls-2"
                 points="118.12 0 81.81 70.14 103.2 70.14 81.81 111.46 154.37 111.46 133.01 70.14 154.37 70.14 118.12 0"/>
        <path class="cls-3"
              d="M64.62,230.83c11.26,0,17.77,6.51,17.77,15.28A12.76,12.76,0,0,1,74,258.33a13.34,13.34,0,0,1,10.13,13.35c0,9.33-7.08,16.16-17.85,16.16h-23v-57H64.62Zm-2,22.84c4.42,0,7.32-2.33,7.32-6.19,0-3.7-2.5-6.11-7.48-6.11H55.7v12.3Zm1,23.81c4.91,0,7.88-2.58,7.88-6.67s-2.9-6.68-7.88-6.68h-8v13.35Z"
              transform="translate(-25.89 -48.83)"/>
        <path class="cls-3"
              d="M101.85,264.77l9.41-1.44c2.17-.32,2.9-1.37,2.9-2.74,0-2.33-2-4.34-5.87-4.34-4.26,0-6.59,2.89-6.84,5.87L90.83,260c.48-5.71,5.79-13.27,17.53-13.27,13,0,17.7,7.24,17.7,15.44v19.54a39.35,39.35,0,0,0,.48,6.19h-11a19.62,19.62,0,0,1-.4-4.5c-2.09,3.38-6,5.63-11.26,5.63C95.09,289,90,283.19,90,276.84,90,269.75,95.25,265.73,101.85,264.77Zm12.3,7.4V270.4l-7.56,1.21c-2.57.4-4.51,1.61-4.51,4.42,0,2.09,1.37,4.1,4.75,4.1C110.46,280.13,114.15,278.36,114.15,272.17Z"
              transform="translate(-25.89 -48.83)"/>
        <path class="cls-3"
              d="M161.36,283.83c-2.09,3.46-6.68,4.91-10.7,4.91-9.73,0-15.2-7.08-15.2-15.6V247.89h12.22v22.68c0,3.86,2.09,6.92,6.43,6.92,4.1,0,6.67-2.82,6.67-6.84V247.89H173V280.7a63.17,63.17,0,0,0,.4,7.16H161.67A31.35,31.35,0,0,1,161.36,283.83Z"
              transform="translate(-25.89 -48.83)"/>
        <path class="cls-3"
              d="M183.79,287.85v-40h11.66v4.58c2-3.54,7.16-5.79,11.5-5.79,5.71,0,9.81,2.33,11.82,6.27,3.14-4.5,7-6.27,12.39-6.27,7.56,0,14.8,4.42,14.8,15.28v25.9H234.14V264.69c0-3.78-2-6.76-6.35-6.76s-6.68,3.3-6.68,6.84v23.08H209.05V264.69c0-3.78-2-6.76-6.43-6.76-4.26,0-6.6,3.3-6.6,6.92v23Z"
              transform="translate(-25.89 -48.83)"/>
        <path class="cls-3"
              d="M66.11,328.3,73.91,352l6.68-23.72h12l-12.39,40H68l-8.68-25.81-8.53,25.81H38.44l-12.55-40H38.6l6.67,23.64,7.88-23.64Z"
              transform="translate(-25.89 -48.83)"/>
        <path class="cls-3"
              d="M104.86,308.91a7.16,7.16,0,1,1-7.08,7.16A7.2,7.2,0,0,1,104.86,308.91Zm-6,59.36v-40h12.22v40Z"
              transform="translate(-25.89 -48.83)"/>
        <path class="cls-3"
              d="M121.75,383.55V328.3h11.82v4.1c1.69-2.57,6-5.06,11.74-5.06,11.58,0,18.58,8.85,18.58,20.83,0,12.23-7.88,21-19.06,21-5.15,0-9-1.77-10.86-4v18.42H121.75Zm21.07-45.2c-4.74,0-9,3.22-9,9.89s4.26,10,9,10,9.09-3.3,9.09-10S147.65,338.35,142.82,338.35Z"
              transform="translate(-25.89 -48.83)"/>
        <path class="cls-3"
              d="M185.84,338.59v29.67H173.61V338.59h-6.35V328.3h6.35v-3.46c0-9.17,5.55-15.44,15.28-15.44a14.84,14.84,0,0,1,5.79.88v10a13.77,13.77,0,0,0-3.62-.4c-2.17,0-5.23,1-5.23,5.39v3.06h8.68v10.29Z"
              transform="translate(-25.89 -48.83)"/>
        <path class="cls-3"
              d="M236.75,356.77c-1.93,6.92-8.28,12.71-18.42,12.71-11,0-20.83-7.88-20.83-21.32,0-12.87,9.57-21.07,19.95-21.07,12.39,0,20,7.64,20,20.51a25.62,25.62,0,0,1-.24,3.78H209.4c.24,4.5,4.34,7.72,9.09,7.72,4.42,0,6.91-2.09,8-5.23Zm-11.1-13.27c-.16-3.05-2.25-6.76-8-6.76a7.61,7.61,0,0,0-8,6.76Z"
              transform="translate(-25.89 -48.83)"/>
        <path class="cls-3" d="M245.35,368.27V310h12.22v58.23Z" transform="translate(-25.89 -48.83)"/>
        <path class="cls-3"
              d="M62.85,464V408.71H74.67v4.1c1.69-2.57,6-5.06,11.74-5.06C98,407.75,105,416.6,105,428.58c0,12.23-7.88,21-19.06,21-5.15,0-9-1.77-10.86-4V464H62.85Zm21.07-45.2c-4.75,0-9,3.22-9,9.89s4.26,10,9,10,9.09-3.3,9.09-10S88.74,418.76,83.92,418.76Z"
              transform="translate(-25.89 -48.83)"/>
        <path class="cls-3"
              d="M126.94,419v29.67H114.72V419h-6.35V408.72h6.35v-3.46c0-9.17,5.55-15.44,15.28-15.44a14.77,14.77,0,0,1,5.79.88v10a13.77,13.77,0,0,0-3.62-.4c-2.17,0-5.23,1-5.23,5.39v3.06h8.69V419Z"
              transform="translate(-25.89 -48.83)"/>
        <path class="cls-3"
              d="M151.3,425.6l9.41-1.44c2.17-.32,2.89-1.37,2.89-2.74,0-2.33-2-4.34-5.87-4.34-4.26,0-6.6,2.89-6.84,5.87l-10.62-2.17c.48-5.71,5.79-13.27,17.53-13.27,12.95,0,17.7,7.24,17.7,15.44v19.54a39.35,39.35,0,0,0,.48,6.19H165a19.62,19.62,0,0,1-.4-4.5c-2.09,3.38-5.95,5.63-11.26,5.63-8.77,0-13.83-5.79-13.83-12.14C139.48,430.59,144.71,426.57,151.3,425.6Zm12.31,7.4v-1.77l-7.56,1.21c-2.58.4-4.51,1.61-4.51,4.42,0,2.09,1.37,4.1,4.74,4.1C159.91,441,163.61,439.19,163.61,433Z"
              transform="translate(-25.89 -48.83)"/>
        <path class="cls-3"
              d="M224.89,441.53c0,3.62.24,6.27.32,7.16H213.47a27.57,27.57,0,0,1-.32-3.86c-1.85,2.73-5.87,4.75-10.69,4.75-11.26,0-19.79-8.69-19.79-21,0-11.9,8-20.83,19.38-20.83,6.84,0,9.81,2.57,10.78,4.1V390.47H224.9v51.06ZM204,438.63c4.74,0,9-3.38,9-10s-4.26-9.89-9-9.89-9,3.22-9,9.89S199.23,438.63,204,438.63Z"
              transform="translate(-25.89 -48.83)"/>
        <path class="cls-1"
              d="M48.07,501.71v-25.5h5.3v25.34c0,5.9,3.22,9.23,8.63,9.23s8.57-3.33,8.57-9.23V476.21h5.35v25.5c0,9.12-6.06,14-13.92,14S48.07,510.83,48.07,501.71Z"
              transform="translate(-25.89 -48.83)"/>
        <path class="cls-1"
              d="M86.82,506.46c.33,2.73,2.4,4.91,6.12,4.91,2.89,0,4.48-1.64,4.48-3.49,0-1.64-1.2-2.89-3.38-3.38l-4.48-1c-4.1-.88-6.55-3.66-6.55-7.37,0-4.48,4.2-8.3,9.34-8.3,7.21,0,9.44,4.7,10,7l-4.53,1.7a5.09,5.09,0,0,0-5.46-4.37c-2.62,0-4.37,1.69-4.37,3.49,0,1.58,1,2.73,3,3.17l4.26.93c4.75,1,7.26,3.93,7.26,7.81,0,3.71-3.11,8.14-9.61,8.14-7.21,0-10.27-4.64-10.7-7.64Z"
              transform="translate(-25.89 -48.83)"/>
        <path class="cls-1"
              d="M131.91,507.45a11.9,11.9,0,0,1-11.79,8.3c-7,0-13.21-5.14-13.21-14,0-8.24,6-13.87,12.56-13.87,8.08,0,12.61,5.57,12.61,13.76a10.76,10.76,0,0,1-.11,1.64H112.2a7.79,7.79,0,0,0,7.92,8,7.15,7.15,0,0,0,7.37-5.3Zm-5.19-8.36c-.11-3.77-2.57-6.71-7.21-6.71a7.06,7.06,0,0,0-7.15,6.71Z"
              transform="translate(-25.89 -48.83)"/>
        <path class="cls-1"
              d="M157,510.94a8.8,8.8,0,0,1-8.14,4.7c-7.7,0-12.45-6.12-12.45-13.92,0-7.43,5-13.76,12.45-13.76,4.64,0,7.15,2.29,8,4.42v-17H162v34.67a43.13,43.13,0,0,0,.27,4.86h-5a22,22,0,0,1-.27-3.55Zm-7.64.16c4.7,0,7.59-4.1,7.59-9.5s-2.84-9.12-7.53-9.12-7.75,3.82-7.75,9.23S144.46,511.1,149.37,511.1Z"
              transform="translate(-25.89 -48.83)"/>
        <path class="cls-1"
              d="M195.38,501.77c0,8-5.57,14-13.43,14s-13.43-5.95-13.43-14,5.57-13.93,13.43-13.93S195.38,493.79,195.38,501.77Zm-5.24,0c0-6.06-3.82-9.34-8.19-9.34s-8.19,3.27-8.19,9.34,3.82,9.39,8.19,9.39S190.14,507.88,190.14,501.77Z"
              transform="translate(-25.89 -48.83)"/>
        <path class="cls-1"
              d="M201.92,514.93V488.67h4.91v3.49a9.06,9.06,0,0,1,8-4.26,8.21,8.21,0,0,1,7.86,5,9.42,9.42,0,0,1,8.79-5c4.59,0,9.06,3.11,9.06,10v17h-5.08V498.44c0-3.44-1.69-6-5.57-6-3.6,0-6.06,2.84-6.06,6.6v15.89h-5.13V498.44c0-3.38-1.64-6-5.57-6-3.66,0-6.12,2.73-6.12,6.66v15.83Z"
              transform="translate(-25.89 -48.83)"/>
        <rect class="cls-1" x="110.09" y="480.44" width="15.71" height="59.32"/>
        <path class="cls-4" d="M176,627.7a32.17,32.17,0,1,1-32.17-32.17A32.18,32.18,0,0,1,176,627.7"
              transform="translate(-25.89 -48.83)"/>
    </g>
</svg>