<svg xmlns:xlink="http://www.w3.org/1999/xlink" xmlns="http://www.w3.org/2000/svg" version="1.1" id="svg2" x="0px"
     y="0px" viewBox="0 0 276.1 590.5" style="enable-background:new 0 0 276.1 590.5;" xml:space="preserve" width="276.1"
     height="590.5">
<style type="text/css">
	.st0{fill:#F25C19;}
	.st1{fill:#00A650;}
	.st2{clip-path:url(#SVGID_2_);}
	.st3{fill:#99D420;}
	.st4{fill:#371710;}
</style>
    <g id="g10" transform="matrix(1.3333333,0,0,-1.3333333,0,690.988)">
	<path id="path12" class="st0" d="M110.1,397.7H99.8v39h10.3V397.7z"/>
        <g id="g14" transform="translate(147.1989,399.6375)">
		<path id="path16" class="st1" d="M-18.4,41.9l-14,27.2h14l-23.8,46.1l-23.9-46.1h14.1l-14.1-27.2H-18.4z"/>
	</g>
        <path id="path18" class="st0" d="M110.1,124.5H99.8v39h10.3V124.5z"/>
        <g id="g20">
		<g>
			<defs>
				<rect id="SVGID_1_" x="-59.1" y="-44.5" width="325.3" height="691"/>
			</defs>
            <clipPath id="SVGID_2_">
				<use xlink:href="#SVGID_1_" style="overflow:visible;"/>
			</clipPath>
            <g id="g22" class="st2">
				<g id="g28" transform="translate(144.4933,56.9371)">
					<path id="path30" class="st3"
                          d="M-18.4,41.9c0-11.7-9.5-21.1-21.1-21.1c-11.7,0-21.1,9.5-21.1,21.1c0,11.7,9.5,21.1,21.1,21.1       C-27.9,63-18.4,53.6-18.4,41.9"/>
				</g>
                <g id="g32" transform="translate(70.6092,322.6174)">
					<path id="path34" class="st4"
                          d="M-18.4,41.9c3.2,0,5.2,1.7,5.2,4.4c0,2.6-1.9,4.4-5.2,4.4h-5.2v-8.8H-18.4z M-19.1,57.5       c2.9,0,4.8,1.5,4.8,4.1c0,2.4-1.6,4-4.9,4h-4.4v-8.1H-19.1z M-17.8,72.5c7.4,0,11.7-4.3,11.7-10c0-3.9-2.4-7-5.5-8       c3.4-0.8,6.7-3.9,6.7-8.8c0-6.1-4.6-10.6-11.7-10.6h-15.1v37.4H-17.8z"/>
				</g>
                <g id="g36" transform="translate(103.7674,326.1017)">
					<path id="path38" class="st4"
                          d="M-18.4,41.9v1.2l-5-0.8c-1.7-0.3-3-1.1-3-2.9c0-1.4,0.9-2.7,3.1-2.7       C-20.9,36.7-18.4,37.8-18.4,41.9 M-26.5,46.8l6.2,1c1.4,0.2,1.9,0.9,1.9,1.8c0,1.5-1.3,2.9-3.9,2.9c-2.8,0-4.3-1.9-4.5-3.9       l-7,1.4c0.3,3.7,3.8,8.7,11.5,8.7c8.5,0,11.6-4.8,11.6-10.1V35.7c0-2.1,0.3-3.8,0.3-4.1h-7.2c-0.1,0.2-0.3,1.2-0.3,3       c-1.4-2.2-3.9-3.7-7.4-3.7c-5.8,0-9.1,3.8-9.1,8C-34.3,43.5-30.9,46.1-26.5,46.8"/>
				</g>
                <g id="g40" transform="translate(134.8128,318.4465)">
					<path id="path42" class="st4"
                          d="M-18.4,41.9c-1.4-2.3-4.4-3.2-7-3.2c-6.4,0-10,4.6-10,10.2v16.6h8V50.6c0-2.5,1.4-4.5,4.2-4.5       c2.7,0,4.4,1.8,4.4,4.5v14.9h8V44c0-2.4,0.2-4.3,0.3-4.7h-7.7C-18.3,39.7-18.4,41.2-18.4,41.9"/>
				</g>
                <g id="g44" transform="translate(149.5447,315.8068)">
					<path id="path46" class="st4"
                          d="M-18.4,41.9v26.2h7.7v-3c1.3,2.3,4.7,3.8,7.6,3.8c3.7,0,6.4-1.5,7.8-4.1       c2.1,3,4.6,4.1,8.1,4.1c5,0,9.7-2.9,9.7-10v-17h-7.8v15.2c0,2.5-1.3,4.4-4.2,4.4s-4.4-2.2-4.4-4.5V41.9h-7.9v15.2       c0,2.5-1.3,4.4-4.2,4.4c-2.8,0-4.3-2.2-4.3-4.5V41.9L-18.4,41.9z"/>
				</g>
                <g id="g48" transform="translate(72.1922,289.2458)">
					<path id="path50" class="st4"
                          d="M-18.4,41.9l5.1-15.6l4.4,15.6h7.9l-8.1-26.2h-8l-5.7,16.9l-5.6-16.9h-8.1l-8.2,26.2h8.3       l4.4-15.5l5.2,15.5H-18.4z"/>
				</g>
                <path id="path52" class="st4"
                      d="M75.2,331.1h8v-26.2h-8V331.1z M79.2,343.9c2.6,0,4.8-2.1,4.8-4.7s-2.1-4.7-4.8-4.7      c-2.5,0-4.6,2.1-4.6,4.7S76.7,343.9,79.2,343.9"/>
                <g id="g54" transform="translate(122.5633,282.6467)">
					<path id="path56" class="st4"
                          d="M-18.4,41.9c-3.1,0-5.9-2.1-5.9-6.5c0-4.3,2.8-6.5,5.9-6.5c3.2,0,6,2.2,6,6.5       S-15.3,41.9-18.4,41.9 M-32.3,12.2v36.3h7.8v-2.7c1.1,1.7,4,3.3,7.7,3.3c7.6,0,12.2-5.8,12.2-13.7c0-8-5.2-13.8-12.5-13.8       c-3.4,0-5.9,1.2-7.1,2.6V12.2L-32.3,12.2z"/>
				</g>
                <g id="g58" transform="translate(150.8113,282.488)">
					<path id="path60" class="st4"
                          d="M-18.4,41.9V22.4h-8v19.5h-4.2v6.8h4.2v2.3c0,6,3.6,10.1,10,10.1c1.6,0,3.1-0.2,3.8-0.6v-6.5       c-0.4,0.1-1.1,0.3-2.4,0.3c-1.4,0-3.4-0.6-3.4-3.5v-2h5.7v-6.8H-18.4z"/>
				</g>
                <g id="g62" transform="translate(176.9993,279.2678)">
					<path id="path64" class="st4"
                          d="M-18.4,41.9c-0.1,2-1.5,4.4-5.3,4.4c-3.4,0-5.1-2.5-5.2-4.4H-18.4z M-11.2,33.2       c-1.3-4.5-5.4-8.3-12.1-8.3c-7.2,0-13.7,5.2-13.7,14c0,8.4,6.3,13.8,13.1,13.8c8.1,0,13.1-5,13.1-13.5c0-1.1-0.1-2.3-0.2-2.5       h-18.3c0.2-3,2.9-5.1,6-5.1c2.9,0,4.5,1.4,5.3,3.4L-11.2,33.2z"/>
				</g>
                <path id="path66" class="st4" d="M171.5,343.1h8v-38.2h-8V343.1z"/>
                <g id="g68" transform="translate(83.9148,229.8468)">
					<path id="path70" class="st4"
                          d="M-18.4,41.9c-3.1,0-5.9-2.1-5.9-6.5c0-4.3,2.8-6.5,5.9-6.5c3.2,0,6,2.2,6,6.5       S-15.3,41.9-18.4,41.9 M-32.3,12.2v36.3h7.8v-2.7c1.1,1.7,4,3.3,7.7,3.3c7.6,0,12.2-5.8,12.2-13.7c0-8-5.2-13.8-12.5-13.8       c-3.4,0-5.9,1.2-7.1,2.6V12.2L-32.3,12.2z"/>
				</g>
                <g id="g72" transform="translate(112.1629,229.6882)">
					<path id="path74" class="st4"
                          d="M-18.4,41.9V22.4h-8v19.5h-4.2v6.8h4.2v2.3c0,6,3.6,10.1,10,10.1c1.6,0,3.1-0.2,3.8-0.6v-6.5       c-0.4,0.1-1.1,0.3-2.4,0.3c-1.4,0-3.4-0.6-3.4-3.5v-2h5.7v-6.8H-18.4z"/>
				</g>
                <g id="g76" transform="translate(136.2918,220.5016)">
					<path id="path78" class="st4"
                          d="M-18.4,41.9v1.2l-5-0.8c-1.7-0.3-3-1.1-3-2.9c0-1.4,0.9-2.7,3.1-2.7       C-20.9,36.7-18.4,37.8-18.4,41.9 M-26.5,46.8l6.2,1c1.4,0.2,1.9,0.9,1.9,1.8c0,1.5-1.3,2.9-3.9,2.9c-2.8,0-4.3-1.9-4.5-3.9       l-7,1.4c0.3,3.7,3.8,8.7,11.5,8.7c8.5,0,11.6-4.8,11.6-10.1V35.7c0-2.1,0.3-3.8,0.3-4.1h-7.2c-0.1,0.2-0.3,1.2-0.3,3       c-1.4-2.2-3.9-3.7-7.4-3.7c-5.8,0-9.1,3.8-9.1,8C-34.3,43.5-30.9,46.1-26.5,46.8"/>
				</g>
                <g id="g80" transform="translate(162.8499,216.8063)">
					<path id="path82" class="st4"
                          d="M-18.4,41.9c3.1,0,5.9,2.2,5.9,6.5c0,4.4-2.8,6.5-5.9,6.5s-5.9-2.1-5.9-6.5       C-24.4,44.1-21.6,41.9-18.4,41.9 M-4.7,40c0-2.4,0.2-4.1,0.2-4.7h-7.7c-0.1,0.3-0.2,1.5-0.2,2.5c-1.2-1.8-3.9-3.1-7-3.1       c-7.4,0-13,5.7-13,13.8c0,7.8,5.3,13.7,12.7,13.7c4.5,0,6.4-1.7,7.1-2.7v14h7.9L-4.7,40z"/>
				</g>
                <g id="g84" transform="translate(41.9217,169.7121)">
					<path id="path86" class="st0"
                          d="M-18.4,41.9c2.8,0,4.7,1.6,4.7,4c0,2.4-1.5,4.1-4.6,4.1h-5v-8.2H-18.4z M-18.9,53.1       c2.8,0,4.5,1.7,4.5,4c0,2.4-1.7,4-4.6,4h-4.2v-8H-18.9z M-18.6,64.1c4.8,0,7.6-2.9,7.6-6.8c0-2.7-1.6-4.6-3.8-5.5       c2.9-0.7,4.6-3.3,4.6-6.1c0-4-3.2-6.9-7.8-6.9h-8.8v25.3H-18.6z"/>
				</g>
                <g id="g88" transform="translate(64.4461,173.9894)">
					<path id="path90" class="st0"
                          d="M-18.4,41.9v0.8l-5.2-0.8c-1.4-0.2-2.5-1-2.5-2.6c0-1.3,1.1-2.5,2.8-2.5       C-20.7,36.8-18.4,38.2-18.4,41.9 M-24.4,44.4l4.6,0.7c1,0.1,1.3,0.7,1.3,1.3c0,1.7-1.1,3.1-3.7,3.1c-2.4,0-3.7-1.5-3.9-3.5       l-3.2,0.7c0.4,3.3,3.3,5.6,7,5.6c5.1,0,7.1-2.9,7.1-6.3v-8.6c0-1.5,0.1-2.4,0.2-2.8h-3.3c-0.1,0.4-0.2,1.1-0.2,2.3       c-0.7-1.2-2.5-2.9-5.5-2.9c-3.5,0-5.7,2.4-5.7,5.1C-29.6,42.2-27.4,43.9-24.4,44.4"/>
				</g>
                <g id="g92" transform="translate(73.2835,159.4821)">
					<path id="path94" class="st0"
                          d="M-18.4,41.9l4.3,9.1l-7.4,15.3h3.9l5.3-11.8l5.1,11.8h3.6l-11.2-24.3H-18.4z"/>
				</g>
                <g id="g96" transform="translate(102.1531,176.9836)">
					<path id="path98" class="st0"
                          d="M-18.4,41.9c-0.1,2.5-1.7,4.4-4.7,4.4c-2.8,0-4.5-2.2-4.7-4.4H-18.4z M-15.1,36.4       c-1-3-3.7-5.4-7.7-5.4c-4.6,0-8.6,3.4-8.6,9.2c0,5.4,3.9,9.1,8.2,9.1c5.3,0,8.2-3.6,8.2-9c0-0.4,0-0.9-0.1-1.1h-12.9       c0.1-3.1,2.3-5.2,5.2-5.2c2.8,0,4.2,1.5,4.8,3.5L-15.1,36.4z"/>
				</g>
                <g id="g100" transform="translate(119.4378,180.4054)">
					<path id="path102" class="st0"
                          d="M-18.4,41.9c-0.5,0.1-1,0.1-1.5,0.1c-2.8,0-4.7-1.5-4.7-5.3v-8.6H-28v17.1h3.3v-3       c1.2,2.6,3.4,3.3,5.1,3.3c0.5,0,0.9-0.1,1.1-0.1V41.9z"/>
				</g>
                <path id="path104" class="st0"
                      d="M104.6,225.7h3.3v-17.1h-3.3V225.7z M106.2,234.6c1.4,0,2.4-1.1,2.4-2.4      c0-1.3-1.1-2.4-2.4-2.4c-1.3,0-2.4,1.1-2.4,2.4C103.8,233.5,104.9,234.6,106.2,234.6"/>
                <g id="g106" transform="translate(133.4427,172.1716)">
					<path id="path108" class="st0"
                          d="M-18.4,41.9c0.2-1.8,1.6-3.2,4-3.2c1.9,0,2.9,1.1,2.9,2.3c0,1.1-0.8,1.9-2.2,2.2l-2.9,0.6       c-2.7,0.6-4.3,2.4-4.3,4.8c0,2.9,2.7,5.4,6.1,5.4c4.7,0,6.2-3.1,6.5-4.6l-3-1.1c-0.1,0.9-0.9,2.9-3.6,2.9       c-1.7,0-2.9-1.1-2.9-2.3c0-1,0.6-1.8,2-2.1l2.8-0.6c3.1-0.7,4.7-2.6,4.7-5.1c0-2.4-2-5.3-6.3-5.3c-4.7,0-6.7,3-7,5L-18.4,41.9z       "/>
				</g>
                <g id="g110" transform="translate(149.9436,175.237)">
					<path id="path112" class="st0"
                          d="M-18.4,41.9c0-3.9,2.5-6,5.2-6c3.2,0,4.4,2.2,4.8,3.5l3-1.3c-0.8-2.5-3.3-5.3-7.7-5.3       c-5,0-8.7,3.9-8.7,9.1c0,5.3,3.7,9.1,8.6,9.1c4.6,0,6.9-2.9,7.6-5.5l-3-1.3c-0.4,1.7-1.7,3.6-4.6,3.6       C-16,47.9-18.4,45.9-18.4,41.9"/>
				</g>
                <g id="g114" transform="translate(170.1873,166.6467)">
					<path id="path116" class="st0"
                          d="M-18.4,41.9h-3.4v25.8h3.4V57.1c1.2,1.8,3.2,2.5,5.2,2.5c4.1,0,6.1-3,6.1-6.8V41.9h-3.4v10.3       c0,2.4-1,4.3-4,4.3c-2.6,0-3.9-2-4-4.5V41.9z"/>
				</g>
                <g id="g118" transform="translate(198.4153,176.9836)">
					<path id="path120" class="st0"
                          d="M-18.4,41.9c-0.1,2.5-1.7,4.4-4.7,4.4c-2.8,0-4.5-2.2-4.7-4.4H-18.4z M-15.1,36.4       c-1-3-3.7-5.4-7.7-5.4c-4.6,0-8.6,3.4-8.6,9.2c0,5.4,3.9,9.1,8.2,9.1c5.3,0,8.2-3.6,8.2-9c0-0.4,0-0.9-0.1-1.1h-12.9       c0.1-3.1,2.3-5.2,5.2-5.2c2.8,0,4.2,1.5,4.8,3.5L-15.1,36.4z"/>
				</g>
                <g id="g122" transform="translate(215.7,180.4054)">
					<path id="path124" class="st0"
                          d="M-18.4,41.9c-0.5,0.1-1,0.1-1.5,0.1c-2.8,0-4.7-1.5-4.7-5.3v-8.6H-28v17.1h3.3v-3       c1.2,2.6,3.4,3.3,5.1,3.3c0.5,0,0.9-0.1,1.1-0.1V41.9z"/>
				</g>
                <g id="g126" transform="translate(113.3113,156.2785)">
					<path id="path128" class="st0"
                          d="M-18.4,41.9h3.6L-22,16.6h-3.6l-6.6,20.5l-6.5-20.5h-3.5l-7.3,25.3h3.6l5.6-19.8l6.3,19.8       h3.7l6.5-20L-18.4,41.9z"/>
				</g>
                <g id="g130" transform="translate(129.3465,138.3493)">
					<path id="path132" class="st0"
                          d="M-18.4,41.9v0.8l-5.2-0.8c-1.4-0.2-2.5-1-2.5-2.6c0-1.3,1.1-2.5,2.8-2.5       C-20.7,36.8-18.4,38.2-18.4,41.9 M-24.4,44.4l4.6,0.7c1,0.1,1.3,0.7,1.3,1.3c0,1.7-1.1,3.1-3.7,3.1c-2.4,0-3.7-1.5-3.9-3.5       l-3.2,0.7c0.4,3.3,3.3,5.6,7,5.6c5.1,0,7.1-2.9,7.1-6.3v-8.6c0-1.5,0.1-2.4,0.2-2.8h-3.3c-0.1,0.4-0.2,1.1-0.2,2.3       c-0.7-1.2-2.5-2.9-5.5-2.9c-3.5,0-5.7,2.4-5.7,5.1C-29.6,42.2-27.4,43.9-24.4,44.4"/>
				</g>
                <path id="path134" class="st0" d="M119.5,198.7h3.4v-25.8h-3.4V198.7z"/>
                <g id="g136" transform="translate(153.9729,133.5016)">
					<path id="path138" class="st0"
                          d="M-18.4,41.9c3.1,0,5,2.7,5,6.2c0,3.5-1.9,6-4.9,6c-3.1,0-5.1-2.5-5.1-6       C-23.5,44.5-21.7,41.9-18.4,41.9 M-13.5,42c-0.8-1.6-2.6-3.1-5.3-3.1c-5,0-8.1,4-8.1,9.1c0,4.8,3.3,9,8.1,9       c3,0,4.7-1.5,5.2-2.9v11.1h3.3V42.6c0-1.6,0.1-2.9,0.2-3.2h-3.2c-0.1,0.4-0.2,1.3-0.2,2.3V42z"/>
				</g>
			</g>
		</g>
	</g>
</g>
</svg>